<?xml version="1.0" standalone="no"?>
<!DOCTYPE svg PUBLIC "-//W3C//DTD SVG 1.1//EN" "http://www.w3.org/Graphics/SVG/1.1/DTD/svg11.dtd" >
<svg xmlns="http://www.w3.org/2000/svg">
<metadata>
This is a custom SVG webfont generated by Font Squirrel.
Copyright   : Copyright c 19901996 ParaGraph
</metadata>
<defs>
<font id="PragmaticaLightCTTRegular" horiz-adv-x="566" >
<font-face units-per-em="1000" ascent="800" descent="-200" />
<missing-glyph horiz-adv-x="233" />
<glyph horiz-adv-x="0" />
<glyph horiz-adv-x="275" />
<glyph unicode=" "  horiz-adv-x="233" />
<glyph unicode="&#x09;" horiz-adv-x="233" />
<glyph unicode="&#xa0;" horiz-adv-x="233" />
<glyph unicode="!" horiz-adv-x="275" d="M111 700h53v-307l-12 -217h-29l-12 217v307zM110 0v74h55v-74h-55z" />
<glyph unicode="&#x22;" horiz-adv-x="310" d="M130 700l-25 -192h-30l-25 192h80zM260 700l-25 -192h-30l-25 192h80z" />
<glyph unicode="#" horiz-adv-x="627" d="M376 60h-36l23 153h-143l-23 -153h-36l23 153h-134l8 50h134l28 179h-134l8 50h134l23 152h36l-23 -152h143l23 152h36l-23 -152h134l-8 -50h-134l-28 -179h134l-8 -50h-134zM371 263l28 179h-143l-28 -179h143z" />
<glyph unicode="$" d="M53 219h50q0 -87 46.5 -138.5t123.5 -55.5v322q-115 35 -154.5 76.5t-39.5 117.5q0 80 52.5 128.5t141.5 52.5v55h35v-55q84 -3 132.5 -52.5t53.5 -119.5h-48q-4 54 -40 89t-98 41v-297q119 -33 162 -81t43 -125q0 -91 -53 -142.5t-152 -51.5v-76h-35v76 q-102 2 -161.5 67t-58.5 169zM308 338v-313q77 2 116 41.5t39 107.5q0 64 -37 105.5t-118 58.5zM273 393v287q-74 -5 -110 -42.5t-36 -99.5q0 -59 34.5 -92t111.5 -53z" />
<glyph unicode="%" horiz-adv-x="870" d="M165 0l499 700h41l-499 -700h-41zM53 508q0 96 47 148t113 52q65 0 112.5 -52t47.5 -148q0 -97 -47.5 -148.5t-112.5 -51.5q-66 0 -113 51.5t-47 148.5zM99 508q0 -76 31 -120.5t83 -44.5q51 0 82.5 44.5t31.5 120.5q-1 75 -32 120t-82 45q-52 0 -83 -45t-31 -120z M497 192q0 96 47 148t113 52q65 -1 112.5 -52.5t47.5 -147.5q0 -97 -47.5 -148.5t-112.5 -51.5q-66 0 -113 51.5t-47 148.5zM543 192q0 -76 31 -120.5t83 -44.5q51 0 82 44.5t32 120.5q0 75 -31.5 120t-82.5 45q-52 0 -83 -45t-31 -120z" />
<glyph unicode="&#x26;" horiz-adv-x="632" d="M505 295h45q-6 -53 -16.5 -91t-28.5 -71l114 -133h-60l-80 94q-40 -60 -95 -87t-128 -28q-106 0 -161 57.5t-55 145.5q-1 75 41 127.5t139 93.5q-56 72 -66.5 99.5t-10.5 60.5q0 62 40.5 99.5t102.5 37.5q58 0 97 -35.5t39 -95.5q0 -56 -33 -99.5t-104 -75.5l191 -227 q13 31 20 63t9 65zM452 125l-206 248q-85 -40 -120.5 -85.5t-35.5 -109.5q0 -69 46 -113.5t120 -43.5q62 0 111.5 25.5t84.5 78.5zM261 425q48 18 80.5 55.5t32.5 87.5q0 36 -24 63t-65 27q-42 -1 -68 -27t-26 -68q0 -31 15.5 -62t54.5 -76z" />
<glyph unicode="'" horiz-adv-x="180" d="M130 700l-25 -192h-30l-25 192h80z" />
<glyph unicode="(" horiz-adv-x="333" d="M219 700h31q-64 -111 -96.5 -220t-32.5 -222q0 -114 32.5 -222.5t96.5 -219.5h-31q-82 130 -115 231t-33 211q0 109 33 210.5t115 231.5z" />
<glyph unicode=")" horiz-adv-x="333" d="M114 -184h-31q63 111 95.5 219.5t33.5 222.5q0 113 -33 222t-96 220h31q81 -130 114.5 -231.5t33.5 -210.5q0 -110 -33.5 -211t-114.5 -231z" />
<glyph unicode="*" horiz-adv-x="486" d="M243 505l-85 -117l-28 20l84 117l-135 43l11 32l137 -43v143h33v-143l136 43l11 -32l-135 -43l84 -117l-28 -20z" />
<glyph unicode="+" horiz-adv-x="600" d="M50 370h235v235h30v-235h235v-30h-235v-235h-30v235h-235v30z" />
<glyph unicode="," horiz-adv-x="275" d="M110 74h55v-113q-1 -44 -14.5 -66t-40.5 -30v36q14 6 20.5 20.5t6.5 39.5v39h-27v74z" />
<glyph unicode="-" horiz-adv-x="404" d="M70 230v70h264v-70h-264z" />
<glyph unicode="." horiz-adv-x="275" d="M110 0v74h55v-74h-55z" />
<glyph unicode="/" horiz-adv-x="394" d="M0 -185l357 885h37l-357 -885h-37z" />
<glyph unicode="0" d="M283 -21q-106 0 -172 90t-66 281q0 190 66 280.5t172 90.5q105 0 171.5 -90.5t66.5 -280.5q0 -191 -66.5 -281t-171.5 -90zM283 21q88 0 138 89t50 240q0 150 -50 239.5t-138 89.5q-89 0 -139 -89.5t-49 -239.5q0 -151 49.5 -240t138.5 -89z" />
<glyph unicode="1" d="M160 548v27h17q69 0 111 32t49 93h29v-700h-50v548h-156z" />
<glyph unicode="2" d="M506 42v-42h-432q-2 84 31.5 144t127.5 123q7 5 15 10t65 41q78 49 108 93.5t30 104.5q0 67 -43 115t-119 48q-70 0 -115.5 -44t-45.5 -129v-16h-50v16q-1 98 57 156t157 59q93 -1 150.5 -55t58.5 -148q-1 -71 -34 -123t-123 -107q-141 -87 -179.5 -136t-38.5 -110h380z " />
<glyph unicode="3" d="M51 196h48q2 -76 46 -125.5t129 -49.5q83 0 130 45t47 131q0 69 -41.5 109.5t-128.5 41.5h-48v42h29q80 0 121 38t41 106q0 64 -43 104.5t-113 40.5q-75 0 -116.5 -45.5t-39.5 -135.5h-48q-3 98 49 160.5t156 62.5q91 0 146.5 -51t56.5 -137q0 -56 -28.5 -97.5 t-79.5 -61.5v-2q63 -10 100 -58.5t37 -118.5q-1 -99 -61.5 -157t-167.5 -59q-101 1 -160 59t-61 158z" />
<glyph unicode="4" d="M362 174h-320v42l316 484h52v-484h114v-42h-114v-174h-48v174zM94 216h268v415z" />
<glyph unicode="5" horiz-adv-x="540" d="M53 165h50q6 -65 52 -105t112 -39q78 0 130.5 50.5t52.5 145.5q0 81 -45.5 133t-126.5 52q-49 -1 -88 -17.5t-69 -48.5h-45l52 364h335v-42h-295l-40 -269q26 25 66.5 40t87.5 15q97 0 157 -60t61 -165q0 -112 -64.5 -176t-169.5 -64q-90 1 -148 50.5t-65 135.5z" />
<glyph unicode="6" d="M497 553h-48q-10 60 -50.5 92.5t-97.5 33.5q-100 0 -148.5 -88t-45.5 -268h2q15 54 67 86.5t122 32.5q101 0 155.5 -63.5t54.5 -161.5q0 -105 -57 -171.5t-156 -66.5q-118 0 -177.5 86t-58.5 262q-1 190 59 292t185 102q80 0 129.5 -45t64.5 -123zM124 213 q0 -85 46 -138.5t125 -53.5q74 0 118.5 54.5t44.5 143.5q0 81 -44 131t-121 50q-79 0 -124 -52.5t-45 -134.5z" />
<glyph unicode="7" d="M51 656v44h464v-32q-59 -71 -106 -153.5t-84 -180.5q-29 -76 -51.5 -164.5t-30.5 -169.5h-54q9 81 31 167.5t56 172.5q33 83 80 166t101 150h-406z" />
<glyph unicode="8" d="M201 384q-55 15 -85.5 57t-30.5 98q0 80 55 131t143 51q87 0 142 -51t56 -131q0 -56 -31 -98t-85 -57q67 -14 105.5 -67.5t39.5 -123.5q0 -94 -59 -154t-168 -60q-110 0 -168.5 60t-58.5 154q-1 70 38 123.5t107 67.5zM283 403q66 0 107.5 37.5t41.5 99.5 q0 57 -39.5 97.5t-109.5 41.5q-71 0 -110 -41t-39 -98q0 -62 41 -99.5t108 -37.5zM283 21q79 0 128 46.5t49 125.5q0 74 -45.5 121t-131.5 47q-87 -1 -132 -47.5t-45 -120.5q-1 -79 48 -125.5t129 -46.5z" />
<glyph unicode="9" d="M69 147h48q9 -61 49.5 -93.5t98.5 -32.5q99 -1 147.5 87t46.5 269h-2q-16 -55 -68 -87t-121 -32q-102 -1 -156 62.5t-54 162.5q0 104 56.5 171t156.5 67q117 -1 176.5 -87t59.5 -261q0 -191 -60 -292.5t-184 -101.5q-81 0 -130.5 44.5t-63.5 123.5zM442 487 q-1 84 -47 137.5t-124 54.5q-75 0 -119 -55t-44 -143q-1 -82 43 -132t122 -49q78 0 123 52t46 135z" />
<glyph unicode=":" horiz-adv-x="275" d="M110 434v74h55v-74h-55zM110 0v74h55v-74h-55z" />
<glyph unicode=";" horiz-adv-x="275" d="M110 434v74h55v-74h-55zM110 74h55v-113q-1 -44 -14.5 -66t-40.5 -30v36q14 6 20.5 20.5t6.5 39.5v39h-27v74z" />
<glyph unicode="&#x3c;" horiz-adv-x="656" d="M100 342l472 -279l-17 -30l-495 294v30l495 294l16 -30z" />
<glyph unicode="=" horiz-adv-x="600" d="M50 460h500v-30h-500v30zM50 260h500v-30h-500v30z" />
<glyph unicode="&#x3e;" horiz-adv-x="656" d="M556 342l-472 279l17 30l495 -294v-30l-495 -294l-16 30z" />
<glyph unicode="?" horiz-adv-x="538" d="M240 0v74h55v-74h-55zM116 496h-50q-4 101 47 163t160 62q98 0 148 -50t51 -130q0 -45 -19.5 -84t-94.5 -108q-44 -40 -58 -71t-13 -73v-18h-39q-1 5 -1 9.5v8.5q0 48 14 84.5t60 80.5q68 65 84.5 97.5t16.5 71.5q0 64 -40.5 102t-108.5 38q-84 0 -122.5 -52.5 t-34.5 -130.5z" />
<glyph unicode="@" horiz-adv-x="860" d="M598 56l19 -27q-46 -27 -89.5 -38.5t-96.5 -11.5q-161 1 -266 99t-105 273q0 162 107 266t264 104q178 0 273.5 -101.5t95.5 -248.5q0 -100 -48 -162t-121 -62q-34 0 -55.5 18.5t-23.5 49.5q-15 -33 -51 -53.5t-81 -20.5q-83 0 -133 54.5t-50 142.5q0 87 50.5 142 t135.5 55q47 0 81.5 -20.5t45.5 -54.5h2v61h44v-272q0 -33 11.5 -50t40.5 -17q49 0 80.5 53.5t31.5 135.5q0 149 -94 234.5t-235 85.5q-149 0 -240 -101t-91 -239q-1 -150 91 -246t240 -96q43 0 85.5 12t81.5 35zM552 337q0 78 -34.5 120.5t-96.5 42.5q-63 0 -95.5 -45 t-32.5 -118q0 -77 33.5 -119.5t93.5 -41.5q64 -1 98 42t34 119z" />
<glyph unicode="A" horiz-adv-x="600" d="M142 227l-86 -227h-53l267 700h60l267 -700h-53l-86 227h-316zM157 269h286l-143 391z" />
<glyph unicode="B" horiz-adv-x="674" d="M92 700h275q103 -1 153 -46.5t51 -127.5q0 -62 -32.5 -102.5t-85.5 -53.5v-2q64 -7 106.5 -54.5t42.5 -119.5q0 -94 -61 -144t-181 -50h-268v700zM140 658v-273h216q85 0 126 38t41 106q0 59 -39.5 94t-116.5 35h-227zM140 343v-301h221q101 -1 146 39.5t45 112.5 q0 74 -46 111t-149 38h-217z" />
<glyph unicode="C" horiz-adv-x="717" d="M617 222h50q-11 -105 -84.5 -174t-202.5 -69q-156 0 -235 104t-79 255q0 177 80.5 280t236.5 103q130 0 200 -63t76 -160h-50q-5 84 -67.5 132.5t-158.5 48.5q-128 0 -197.5 -90.5t-69.5 -248.5q-1 -144 70 -231.5t195 -87.5q101 0 164 56t72 145z" />
<glyph unicode="D" horiz-adv-x="701" d="M92 700h229q166 -1 246.5 -93t80.5 -255q0 -188 -90 -270t-286 -82h-180v700zM140 658v-616h148q166 -1 238 75t72 233q0 148 -71.5 228t-202.5 80h-184z" />
<glyph unicode="E" horiz-adv-x="592" d="M140 385h383v-42h-383v-301h428v-42h-476v700h464v-42h-416v-273z" />
<glyph unicode="F" horiz-adv-x="547" d="M140 381h345v-42h-345v-339h-48v700h435v-42h-387v-277z" />
<glyph unicode="G" horiz-adv-x="735" d="M382 351h287v-351h-48v137h-2q-33 -76 -100 -116.5t-155 -40.5q-145 0 -228.5 100.5t-82.5 271.5q-1 175 82 274t251 99q122 0 190.5 -62t79.5 -157h-50q-10 84 -69.5 130.5t-150.5 46.5q-145 0 -214 -89t-69 -239q0 -154 70.5 -243.5t195.5 -89.5q114 0 183 76t70 211 h-240v42z" />
<glyph unicode="H" horiz-adv-x="688" d="M140 350v-350h-48v700h48v-308h408v308h48v-700h-48v350h-408z" />
<glyph unicode="I" horiz-adv-x="232" d="M92 700h48v-700h-48v700z" />
<glyph unicode="J" horiz-adv-x="493" d="M30 217h48q-1 -7 -1 -14.5t1 -14.5q2 -77 38.5 -121.5t109.5 -44.5q79 0 109.5 53.5t30.5 158.5v466h48v-466q0 -132 -46.5 -193t-143.5 -61q-98 0 -146.5 56t-47.5 149v32z" />
<glyph unicode="K" horiz-adv-x="625" d="M140 310l400 390h64l-293 -285l314 -415h-62l-287 383l-136 -133v-250h-48v700h48v-390z" />
<glyph unicode="L" horiz-adv-x="516" d="M516 42v-42h-424v700h48v-658h376z" />
<glyph unicode="M" horiz-adv-x="844" d="M398 0l-258 634h-2l2 -27v-607h-48v700h73l257 -637l257 637h73v-700h-48v607l2 27h-2l-258 -634h-48z" />
<glyph unicode="N" horiz-adv-x="712" d="M140 633v-633h-48v700h60l420 -633v633h48v-700h-59z" />
<glyph unicode="O" horiz-adv-x="778" d="M66 350q-1 173 84.5 272t238.5 99q152 0 237.5 -99t85.5 -272q-1 -174 -86 -272.5t-237 -98.5q-153 0 -238 98.5t-85 272.5zM116 350q-1 -155 70.5 -242t202.5 -87q130 -1 201.5 86.5t71.5 242.5q0 154 -71.5 241.5t-201.5 87.5q-131 0 -202 -87.5t-71 -241.5z" />
<glyph unicode="P" horiz-adv-x="614" d="M92 700h256q112 -1 169 -47.5t57 -142.5q0 -95 -57.5 -148.5t-180.5 -53.5h-196v-308h-48v700zM140 658v-308h196q90 -1 139 37.5t49 121.5q-1 73 -46.5 111t-141.5 38h-196z" />
<glyph unicode="Q" horiz-adv-x="778" d="M603 54l94 -83l-28 -31l-99 87q-38 -25 -83 -36.5t-98 -11.5q-153 1 -238 99t-85 272q0 173 85 272t238 99q152 0 237.5 -99t85.5 -272q0 -102 -29 -175.5t-80 -120.5zM482 160l86 -76q46 46 70 109.5t24 156.5q-1 154 -72 241.5t-201 87.5q-131 0 -202 -87.5t-71 -241.5 q0 -155 71 -242.5t202 -86.5q41 0 78 9.5t67 28.5l-80 70z" />
<glyph unicode="R" horiz-adv-x="673" d="M92 0v700h279q117 0 174 -43.5t57 -134.5q0 -68 -33 -115.5t-91 -61.5v-2q49 -13 71.5 -47t27.5 -108q7 -133 12.5 -151.5t17.5 -36.5h-55q-10 18 -14 36t-11 151q-5 78 -37.5 106.5t-102.5 29.5h-247v-323h-48zM140 658v-293h251q75 0 118 41t43 114q0 72 -45 105 t-136 33h-231z" />
<glyph unicode="S" horiz-adv-x="634" d="M53 219h50q-1 -88 57.5 -140.5t166.5 -52.5q100 0 152 43t52 118q0 55 -38.5 90.5t-129.5 55.5q-3 0 -2.5 0t-86.5 18q-116 23 -162 63.5t-46 111.5q0 88 63.5 142.5t188.5 54.5q111 0 173.5 -55.5t69.5 -143.5h-50q-6 72 -57 114.5t-139 42.5q-93 0 -146.5 -41.5 t-52.5 -108.5q0 -58 36.5 -88.5t164.5 -53.5q157 -29 210.5 -76.5t53.5 -126.5q0 -102 -67.5 -152t-187.5 -50q-135 0 -205 64.5t-68 170.5z" />
<glyph unicode="T" horiz-adv-x="536" d="M244 658h-238v42h524v-42h-238v-658h-48v658z" />
<glyph unicode="U" horiz-adv-x="676" d="M79 700h48v-425q0 -140 54 -193.5t157 -53.5q114 -1 162 59t49 188v425h48v-426q0 -155 -65.5 -221.5t-193.5 -66.5q-133 0 -196.5 65t-62.5 223v426z" />
<glyph unicode="V" horiz-adv-x="572" d="M286 48l228 652h54l-250 -700h-64l-250 700h54z" />
<glyph unicode="W" horiz-adv-x="846" d="M424 643l-175 -643h-62l-181 700h54l159 -637l175 637h60l173 -637l159 637h54l-181 -700h-62z" />
<glyph unicode="X" horiz-adv-x="542" d="M271 395l203 305h58l-228 -342l234 -358h-62l-205 320l-205 -320h-62l234 358l-228 342h58z" />
<glyph unicode="Y" horiz-adv-x="580" d="M290 353l227 347h59l-262 -391v-309h-48v309l-262 391h59z" />
<glyph unicode="Z" d="M51 700h471v-44l-443 -614h461v-42h-514v48l445 610h-420v42z" />
<glyph unicode="[" horiz-adv-x="343" d="M106 700h184v-35h-136v-815h136v-35h-184v885z" />
<glyph unicode="\" horiz-adv-x="394" d="M394 -185h-37l-357 885h37z" />
<glyph unicode="]" horiz-adv-x="343" d="M53 700h184v-885h-184v35h136v815h-136v35z" />
<glyph unicode="^" horiz-adv-x="374" d="M187 670l-95 -188h-36l111 218h40l111 -218h-36z" />
<glyph unicode="_" horiz-adv-x="500" d="M0 -185v30h500v-30h-500z" />
<glyph unicode="`" horiz-adv-x="266" d="M102 700l70 -132h-35l-95 132h60z" />
<glyph unicode="a" horiz-adv-x="537" d="M114 367h-44q1 72 48.5 116.5t145.5 44.5q88 -1 134.5 -39.5t45.5 -119.5l-5 -278q-1 -31 9.5 -45.5t29.5 -14.5q4 0 9 0.5t10 2.5v-34q-10 -2 -18 -3.5t-15 -1.5q-38 0 -55 24.5t-14 69.5q-24 -48 -70.5 -74t-110.5 -27q-79 0 -123.5 36.5t-44.5 109.5q0 66 43.5 103.5 t167.5 49.5q10 0 22.5 1.5t34.5 4.5q66 7 75.5 22t10.5 60q0 54 -34 86t-102 32q-77 0 -113.5 -34t-36.5 -92zM395 218l1 63q-9 -7 -19.5 -12t-124.5 -18q-96 -12 -128 -38t-32 -79q-1 -51 32.5 -81t90.5 -30q80 0 129 51t51 144z" />
<glyph unicode="b" horiz-adv-x="570" d="M79 700h44v-277q24 51 70.5 78t105.5 27q101 0 159.5 -70t58.5 -197q0 -134 -59 -207.5t-161 -73.5q-62 0 -105.5 25.5t-66.5 75.5h-2v-81h-44v700zM121 251q-1 -108 47.5 -172t130.5 -64q86 0 129 66t43 181q0 104 -45 167t-125 64q-85 0 -132.5 -65.5t-47.5 -176.5z " />
<glyph unicode="c" horiz-adv-x="527" d="M444 174h43q-12 -99 -62.5 -146.5t-140.5 -47.5q-116 0 -173.5 77t-57.5 205q0 131 61.5 198.5t169.5 67.5q89 0 139 -46t58 -119h-43q-9 62 -51 96t-103 34q-88 -1 -136.5 -62t-48.5 -166q0 -123 50 -186.5t135 -63.5q70 0 110.5 43t49.5 116z" />
<glyph unicode="d" horiz-adv-x="568" d="M445 700h44v-700h-44v81h-2q-22 -51 -67.5 -76t-104.5 -25q-111 0 -165 78.5t-53 202.5q0 121 55.5 193.5t160.5 73.5q58 0 105 -27.5t71 -77.5v277zM99 262q-1 -127 46 -187t124 -60q81 0 129 64t49 172q0 111 -48 176t-132 66q-79 0 -123.5 -63t-44.5 -168z" />
<glyph unicode="e" horiz-adv-x="558" d="M455 147h44q-13 -74 -66.5 -120.5t-145.5 -46.5q-118 0 -176 74.5t-58 206.5q0 131 63.5 199t170.5 68q110 0 164.5 -70.5t53.5 -208.5h-406q1 -115 52.5 -174.5t137.5 -59.5q62 -1 108 33.5t58 98.5zM99 284h359q-1 100 -48 154t-126 55q-82 -1 -132.5 -55.5 t-52.5 -153.5z" />
<glyph unicode="f" horiz-adv-x="257" d="M251 508v-35h-107v-473h-44v473h-94v35h94v76q0 61 24.5 89.5t79.5 28.5q5 0 17 -1t30 -1v-35q-39 1 -42 1.5t-5 0.5q-29 -1 -44.5 -19t-15.5 -61v-79h107z" />
<glyph unicode="g" horiz-adv-x="565" d="M78 -68h50q12 -44 50.5 -67t97.5 -23q74 0 119.5 47.5t46.5 142.5v60q-19 -48 -64 -74t-103 -26q-102 0 -162.5 69t-59.5 199q-1 127 55 197t155 71q63 0 108.5 -27t68.5 -75h2v82h44v-470q-1 -127 -57.5 -179t-156.5 -52q-83 0 -131 31t-63 94zM280 27q78 -1 121 55.5 t43 171.5q0 117 -45.5 178t-131.5 61t-127 -64t-41 -168q-1 -115 48 -174.5t133 -59.5z" />
<glyph unicode="h" horiz-adv-x="540" d="M79 700h44v-269q27 48 74 72.5t101 24.5q81 0 121.5 -45t41.5 -133v-350h-44v323q0 100 -31.5 134.5t-89.5 35.5q-80 -1 -126.5 -54t-46.5 -145v-294h-44v700z" />
<glyph unicode="i" horiz-adv-x="202" d="M79 508h44v-508h-44v508zM76 627v73h50v-73h-50z" />
<glyph unicode="j" horiz-adv-x="202" d="M79 508h44v-571q-1 -70 -25 -97t-74 -27q-8 0 -16 1t-15 1v37h7.5t6.5 -1q40 0 56 20t16 72v565zM76 627v73h50v-73h-50z" />
<glyph unicode="k" horiz-adv-x="479" d="M123 240l284 268h55l-203 -193l220 -315h-51l-201 286l-104 -100v-186h-44v700h44v-460z" />
<glyph unicode="l" horiz-adv-x="202" d="M79 700h44v-700h-44v700z" />
<glyph unicode="m" horiz-adv-x="824" d="M79 508h44v-74q21 43 61 68.5t96 25.5q53 0 92.5 -27.5t50.5 -74.5q22 46 64.5 74t104.5 28q71 0 112 -44.5t41 -143.5v-340h-44v335q-1 81 -30 119.5t-80 38.5q-70 -1 -114 -47.5t-43 -128.5v-317h-44v335q0 79 -30 118t-82 40q-65 0 -110.5 -52.5t-44.5 -130.5v-310 h-44v508z" />
<glyph unicode="n" horiz-adv-x="540" d="M79 508h44v-77q27 48 74 72.5t101 24.5q81 0 121.5 -45t41.5 -133v-350h-44v323q0 100 -31.5 134.5t-89.5 35.5q-80 -1 -126.5 -54t-46.5 -145v-294h-44v508z" />
<glyph unicode="o" horiz-adv-x="574" d="M53 254q0 135 63 204t171 70q107 0 170.5 -69.5t63.5 -204.5q0 -136 -63.5 -205t-170.5 -69q-108 0 -171 69t-63 205zM99 254q-1 -112 47 -175.5t141 -63.5q92 0 140 63.5t48 175.5q0 111 -48 175t-140 64q-93 0 -140.5 -64t-47.5 -175z" />
<glyph unicode="p" horiz-adv-x="570" d="M79 508h44v-81h2q23 50 70 75.5t104 25.5q101 0 159.5 -69t58.5 -198q0 -133 -59 -207t-161 -74q-60 0 -104.5 25.5t-69.5 79.5v-270h-44v693zM121 251q-1 -108 47.5 -172t130.5 -64q86 0 129 66t43 181q0 104 -45 167t-125 64q-85 0 -132.5 -65.5t-47.5 -176.5z" />
<glyph unicode="q" horiz-adv-x="570" d="M473 508h44v-693h-44v270q-25 -52 -71.5 -78.5t-104.5 -26.5q-101 0 -159.5 73.5t-58.5 207.5q0 128 59 197.5t159 69.5q56 0 103 -26t71 -75h2v81zM125 262q-1 -115 42 -181t130 -66q81 0 129.5 64t48.5 172q0 111 -48 176.5t-132 65.5q-81 -1 -125.5 -64t-44.5 -167z " />
<glyph unicode="r" horiz-adv-x="318" d="M318 518v-45h-11.5h-10.5q-89 -4 -131 -61.5t-42 -168.5v-243h-44v508h44v-105h2q19 49 64.5 82t105.5 33h23z" />
<glyph unicode="s" horiz-adv-x="470" d="M40 145h45q0 -55 40 -92.5t114 -37.5q70 0 107.5 31.5t37.5 83.5q-1 38 -24.5 60.5t-97.5 42.5q-2 0 0 -0.5t-55 13.5q-84 19 -118 52t-34 94q-1 61 43 98.5t131 37.5q83 0 131.5 -38t54.5 -112h-45q-2 49 -36.5 81.5t-102.5 33.5q-61 0 -96 -27t-34 -76q-1 -40 21.5 -63 t133.5 -49q108 -27 141 -58t33 -85q0 -71 -49 -113t-148 -42q-85 1 -139.5 44.5t-53.5 120.5z" />
<glyph unicode="t" horiz-adv-x="274" d="M6 508h101v152h44v-152h110v-35h-110v-380q0 -44 10 -58t35 -14q13 0 31 3.5t34 10.5v-35q-19 -6 -37.5 -10t-33.5 -4q-44 0 -63.5 21t-19.5 81v385h-101v35z" />
<glyph unicode="u" horiz-adv-x="540" d="M461 0h-44v75h-2q-25 -45 -70.5 -70t-102.5 -25q-82 0 -123 44.5t-40 133.5v350h44v-323q0 -101 31 -135.5t90 -34.5q79 0 125.5 53t47.5 146v294h44v-508z" />
<glyph unicode="v" horiz-adv-x="432" d="M216 47l166 461h50l-190 -508h-52l-190 508h50z" />
<glyph unicode="w" horiz-adv-x="672" d="M336 456l-127 -456h-56l-147 508h46l130 -455l128 455h52l128 -455l130 455h46l-147 -508h-56z" />
<glyph unicode="x" horiz-adv-x="434" d="M217 297l146 211h53l-171 -243l189 -265h-57l-160 236l-160 -236h-57l189 265l-172 243h54z" />
<glyph unicode="y" horiz-adv-x="447" d="M79 -185v37q9 -1 17.5 -1.5t17.5 -1.5q33 0 49 15.5t37 77.5l19 57l-206 509h53l176 -456l160 456h45l-214 -590q-26 -69 -50.5 -88t-64.5 -19q-11 0 -20.5 1.5t-18.5 2.5z" />
<glyph unicode="z" horiz-adv-x="439" d="M48 508h352v-40l-318 -433h331v-35h-387v31l329 442h-307v35z" />
<glyph unicode="{" horiz-adv-x="366" d="M75 236v42q42 3 65.5 41.5t23.5 105.5q0 7 -0.5 16t-1.5 38q-2 29 -2.5 37t0.5 16q0 79 41 122.5t115 45.5v-35q-48 -5 -78 -34t-30 -79q0 -12 2 -41.5t2 -68.5q-1 -86 -25 -126.5t-71 -57.5v-2q47 -18 71.5 -58.5t24.5 -125.5q-1 -40 -2.5 -69t-1.5 -41q0 -50 30 -79 t78 -34v-35q-74 2 -115 45.5t-41 122.5q-1 8 -0.5 15.5l2.5 37.5q1 28 1.5 37t0.5 17q0 66 -23.5 104.5t-65.5 42.5z" />
<glyph unicode="|" horiz-adv-x="450" d="M208 -224v1053h34v-1053h-34z" />
<glyph unicode="}" horiz-adv-x="366" d="M291 278v-42q-43 -4 -66.5 -42.5t-22.5 -104.5v-17t2 -37q1 -30 1.5 -37.5t0.5 -15.5q0 -79 -41.5 -122.5t-114.5 -45.5v35q47 5 77.5 34t30.5 79q0 12 -2 41t-2 69q0 85 24 125.5t72 58.5v2q-48 17 -72.5 57.5t-23.5 126.5q-1 39 1.5 68.5t2.5 41.5q0 50 -30.5 79 t-77.5 34v35q73 -2 114 -45.5t42 -122.5q0 -8 -0.5 -16t-1.5 -37q-2 -29 -2 -38v-16q0 -67 23 -105.5t66 -41.5z" />
<glyph unicode="~" horiz-adv-x="580" d="M79 302l-29 12q17 47 49 77.5t74 30.5q20 0 41 -6t42 -17l103 -55q10 -6 25 -9.5t29 -3.5q29 0 51 21t37 56l29 -12q-23 -52 -53.5 -80t-69.5 -28q-22 0 -40.5 5t-42.5 18l-103 55q-11 5 -26.5 8.5t-28.5 4.5q-29 -1 -53 -23t-34 -54z" />
<glyph horiz-adv-x="718" d="M6 658v42h486v-42h-238v-265q50 3 91 5t62 2q116 -1 180.5 -49t64.5 -152q0 -99 -56.5 -155.5t-154.5 -56.5q-21 0 -40 3.5t-39 9.5v42q20 -7 38.5 -10t36.5 -3q79 0 122 45t43 129q0 82 -52 118.5t-150 36.5q-26 -1 -66 -2.5t-80 -4.5v-351h-48v658h-200z" />
<glyph unicode="&#x402;" horiz-adv-x="718" d="M6 658v42h486v-42h-238v-265q50 3 91 5t62 2q116 -1 180.5 -49t64.5 -152q0 -99 -56.5 -155.5t-154.5 -56.5q-21 0 -40 3.5t-39 9.5v42q20 -7 38.5 -10t36.5 -3q79 0 122 45t43 129q0 82 -52 118.5t-150 36.5q-26 -1 -66 -2.5t-80 -4.5v-351h-48v658h-200z" />
<glyph horiz-adv-x="526" d="M140 658v-658h-48v700h428v-42h-380zM341 900h66l-96 -140h-40z" />
<glyph unicode="&#x403;" horiz-adv-x="526" d="M140 658v-658h-48v700h428v-42h-380zM341 900h66l-96 -140h-40z" />
<glyph horiz-adv-x="625" d="M140 310l400 390h64l-293 -285l314 -415h-62l-287 383l-136 -133v-250h-48v700h48v-390zM349 900h66l-96 -140h-40z" />
<glyph unicode="&#x40c;" horiz-adv-x="625" d="M140 310l400 390h64l-293 -285l314 -415h-62l-287 383l-136 -133v-250h-48v700h48v-390zM349 900h66l-96 -140h-40z" />
<glyph horiz-adv-x="720" d="M648 0h-48v236q-1 70 -37 96t-161 26q-24 0 -64.5 -2t-83.5 -5v-351h-48v658h-200v42h486v-42h-238v-265q45 3 83.5 5t68.5 2q128 0 185 -29.5t57 -138.5v-232z" />
<glyph unicode="&#x40b;" horiz-adv-x="720" d="M648 0h-48v236q-1 70 -37 96t-161 26q-24 0 -64.5 -2t-83.5 -5v-351h-48v658h-200v42h486v-42h-238v-265q45 3 83.5 5t68.5 2q128 0 185 -29.5t57 -138.5v-232z" />
<glyph horiz-adv-x="688" d="M548 42v658h48v-700h-228v-185h-48v185h-228v700h48v-658h408z" />
<glyph unicode="&#x40f;" horiz-adv-x="688" d="M548 42v658h48v-700h-228v-185h-48v185h-228v700h48v-658h408z" />
<glyph horiz-adv-x="540" d="M79 700h44v-70h220v-35h-220v-164q25 44 71 70.5t104 26.5q92 0 132.5 -64.5t40.5 -254.5q0 -224 -48 -308.5t-158 -85.5v35h13q72 0 109.5 66.5t37.5 290.5q0 164 -30.5 225t-98.5 61q-80 0 -126.5 -53.5t-46.5 -145.5v-294h-44v595h-80v35h80v70z" />
<glyph unicode="&#x452;" horiz-adv-x="540" d="M79 700h44v-70h220v-35h-220v-164q25 44 71 70.5t104 26.5q92 0 132.5 -64.5t40.5 -254.5q0 -224 -48 -308.5t-158 -85.5v35h13q72 0 109.5 66.5t37.5 290.5q0 164 -30.5 225t-98.5 61q-80 0 -126.5 -53.5t-46.5 -145.5v-294h-44v595h-80v35h80v70z" />
<glyph horiz-adv-x="444" d="M123 273l249 235h56l-254 -235l270 -273h-60l-261 265v-265h-44v508h44v-235zM284 700h60l-95 -132h-35z" />
<glyph unicode="&#x45c;" horiz-adv-x="444" d="M123 273l249 235h56l-254 -235l270 -273h-60l-261 265v-265h-44v508h44v-235zM284 700h60l-95 -132h-35z" />
<glyph horiz-adv-x="540" d="M79 700h44v-70h220v-35h-220v-164q27 48 74 72.5t101 24.5q81 0 121.5 -45t41.5 -133v-350h-44v323q0 100 -31.5 134.5t-89.5 35.5q-80 -1 -126.5 -54t-46.5 -145v-294h-44v595h-80v35h80v70z" />
<glyph unicode="&#x45b;" horiz-adv-x="540" d="M79 700h44v-70h220v-35h-220v-164q27 48 74 72.5t101 24.5q81 0 121.5 -45t41.5 -133v-350h-44v323q0 100 -31.5 134.5t-89.5 35.5q-80 -1 -126.5 -54t-46.5 -145v-294h-44v595h-80v35h80v70z" />
<glyph unicode="&#x45d;" horiz-adv-x="233" />
<glyph unicode="&#x40d;" horiz-adv-x="233" />
<glyph unicode="&#xa1;" horiz-adv-x="549" d="M303 221l194 479h52l-239 -590q-26 -64 -60 -92t-92 -28q-18 0 -32 2.5t-28 6.5v42q14 -5 28.5 -7t28.5 -2q44 0 71.5 29t51.5 99l-265 540h59zM158 852h44q2 -39 30 -63.5t72 -23.5q43 -1 71 23.5t31 63.5h44q-5 -52 -44 -87t-102 -35q-64 0 -103 35t-43 87z" />
<glyph unicode="&#x40e;" horiz-adv-x="549" d="M303 221l194 479h52l-239 -590q-26 -64 -60 -92t-92 -28q-18 0 -32 2.5t-28 6.5v42q14 -5 28.5 -7t28.5 -2q44 0 71.5 29t51.5 99l-265 540h59zM158 852h44q2 -39 30 -63.5t72 -23.5q43 -1 71 23.5t31 63.5h44q-5 -52 -44 -87t-102 -35q-64 0 -103 35t-43 87z" />
<glyph unicode="&#xa2;" horiz-adv-x="447" d="M79 -185v37q9 -1 17.5 -1.5t17.5 -1.5q33 0 49 15.5t37 77.5l19 57l-206 509h53l176 -456l160 456h45l-214 -590q-26 -69 -50.5 -88t-64.5 -19q-11 0 -20.5 1.5t-18.5 2.5zM105 700h37q2 -41 30 -64.5t71 -22.5q42 0 70 23t31 64h37q-6 -54 -43.5 -85.5t-94.5 -31.5 q-58 0 -95.5 31.5t-42.5 85.5z" />
<glyph unicode="&#x45e;" horiz-adv-x="447" d="M79 -185v37q9 -1 17.5 -1.5t17.5 -1.5q33 0 49 15.5t37 77.5l19 57l-206 509h53l176 -456l160 456h45l-214 -590q-26 -69 -50.5 -88t-64.5 -19q-11 0 -20.5 1.5t-18.5 2.5zM105 700h37q2 -41 30 -64.5t71 -22.5q42 0 70 23t31 64h37q-6 -54 -43.5 -85.5t-94.5 -31.5 q-58 0 -95.5 31.5t-42.5 85.5z" />
<glyph unicode="&#xa3;" horiz-adv-x="493" d="M30 217h48q-1 -7 -1 -14.5t1 -14.5q2 -77 38.5 -121.5t109.5 -44.5q79 0 109.5 53.5t30.5 158.5v466h48v-466q0 -132 -46.5 -193t-143.5 -61q-98 0 -146.5 56t-47.5 149v32z" />
<glyph unicode="&#x408;" horiz-adv-x="493" d="M30 217h48q-1 -7 -1 -14.5t1 -14.5q2 -77 38.5 -121.5t109.5 -44.5q79 0 109.5 53.5t30.5 158.5v466h48v-466q0 -132 -46.5 -193t-143.5 -61q-98 0 -146.5 56t-47.5 149v32z" />
<glyph unicode="&#xa4;" horiz-adv-x="560" d="M57 128l57 57q-26 29 -40.5 66t-13.5 79q-1 41 13.5 78t40.5 67l-57 57l21 21l57 -57q29 25 66 39.5t79 14.5q41 0 78 -14.5t67 -39.5l57 57l21 -21l-57 -57q25 -30 39.5 -67t14.5 -78q0 -42 -14.5 -79t-39.5 -66l57 -57l-21 -21l-57 57q-30 -26 -67 -40t-78 -14 q-42 0 -79 14t-66 40l-57 -57zM90 330q0 -80 55 -135t135 -55q79 0 134.5 55t55.5 135q0 79 -55.5 134.5t-134.5 55.5q-80 0 -135.5 -55.5t-54.5 -134.5z" />
<glyph unicode="&#xa5;" horiz-adv-x="526" d="M140 658v-658h-48v700h378v158h44l6 -200h-380z" />
<glyph unicode="&#x490;" horiz-adv-x="526" d="M140 658v-658h-48v700h378v158h44l6 -200h-380z" />
<glyph unicode="&#xa6;" horiz-adv-x="450" d="M208 206h34v-430h-34v430zM242 399h-34v430h34v-430z" />
<glyph unicode="&#xa7;" horiz-adv-x="550" d="M428 562h-44q-1 62 -26.5 92.5t-85.5 30.5q-52 -1 -79.5 -24.5t-27.5 -64.5q0 -36 17 -55t153 -77q91 -39 126 -79t36 -103q0 -66 -38 -109t-96 -60q37 -19 54.5 -46.5t18.5 -66.5q0 -60 -41.5 -98.5t-119.5 -38.5q-86 0 -126 46t-40 125h44q-1 -61 31 -94.5t91 -34.5 q53 1 82.5 26t30.5 66q0 31 -17 52t-137 71q-95 39 -138 84t-43 115q0 66 37 106.5t101 56.5q-39 22 -56.5 48t-17.5 71q0 61 42.5 93.5t113.5 32.5q80 0 117.5 -43t37.5 -122zM314 136q68 18 100.5 54.5t32.5 88.5q-1 58 -41 94t-173 83q-59 -9 -94.5 -43.5t-35.5 -90.5 q0 -62 37 -97.5t174 -88.5z" />
<glyph unicode="&#xa8;" horiz-adv-x="592" d="M140 385h383v-42h-383v-301h428v-42h-476v700h464v-42h-416v-273zM212 772v67h50v-67h-50zM400 772v67h50v-67h-50z" />
<glyph unicode="&#x401;" horiz-adv-x="592" d="M140 385h383v-42h-383v-301h428v-42h-476v700h464v-42h-416v-273zM212 772v67h50v-67h-50zM400 772v67h50v-67h-50z" />
<glyph unicode="&#xa9;" horiz-adv-x="800" d="M50 350q0 144 101.5 247t248.5 103q144 0 247 -103t103 -247q0 -145 -103 -247.5t-247 -102.5q-147 0 -248.5 102.5t-101.5 247.5zM90 350q0 -133 89.5 -226.5t220.5 -93.5q127 0 218.5 93.5t91.5 226.5t-92 226.5t-218 93.5q-130 0 -220 -93.5t-90 -226.5zM504 297h44 q-9 -58 -46.5 -92t-97.5 -33q-77 0 -121.5 47t-44.5 132q-1 87 40.5 137.5t121.5 50.5q58 0 100 -31.5t43 -83.5h-44q-5 38 -30 59t-69 21q-54 0 -85 -37t-31 -116q0 -74 33.5 -109.5t87.5 -34.5q42 0 67.5 24t31.5 66z" />
<glyph unicode="&#xaa;" horiz-adv-x="717" d="M490 386v-42h-374q3 -149 73.5 -236.5t191.5 -86.5q104 0 164 55t72 146h50q-11 -105 -84.5 -174t-202.5 -69q-156 0 -235 104t-79 255q0 177 80.5 280t236.5 103q130 0 200 -63t76 -160h-50q-5 79 -63.5 130t-162.5 51q-118 0 -189.5 -75.5t-77.5 -217.5h374z" />
<glyph unicode="&#x404;" horiz-adv-x="717" d="M490 386v-42h-374q3 -149 73.5 -236.5t191.5 -86.5q104 0 164 55t72 146h50q-11 -105 -84.5 -174t-202.5 -69q-156 0 -235 104t-79 255q0 177 80.5 280t236.5 103q130 0 200 -63t76 -160h-50q-5 79 -63.5 130t-162.5 51q-118 0 -189.5 -75.5t-77.5 -217.5h374z" />
<glyph unicode="&#xab;" horiz-adv-x="462" d="M90 275l121 -102v-50l-149 130v44l149 130v-50zM266 275l121 -102v-50l-149 130v44l149 130v-50z" />
<glyph unicode="&#xac;" horiz-adv-x="600" d="M50 360h500v-170h-30v140h-470v30z" />
<glyph unicode="&#xad;" horiz-adv-x="404" d="M70 230v70h264v-70h-264z" />
<glyph unicode="&#xae;" horiz-adv-x="800" d="M50 350q0 144 102.5 247t247.5 103t247 -102.5t103 -247.5q-1 -146 -103 -248t-247 -102t-247.5 102.5t-102.5 247.5zM90 350q0 -132 91 -226t219 -94q129 0 219.5 93.5t90.5 226.5q0 134 -90.5 227t-219.5 93q-128 0 -219 -94t-91 -226zM272 178v350h151q59 0 89 -26.5 t30 -74.5q0 -29 -15 -51t-44 -33v-2q24 -6 35.5 -22.5t14.5 -57.5q3 -64 5.5 -70t8.5 -13h-47q-7 7 -9 15t-4 65q-2 38 -19.5 51.5t-57.5 13.5h-94v-145h-44zM316 493v-135h96q39 0 61.5 18.5t22.5 50.5q0 33 -24 49.5t-67 16.5h-89z" />
<glyph unicode="&#xaf;" horiz-adv-x="232" d="M92 700h48v-700h-48v700zM33 772v67h50v-67h-50zM149 772v67h50v-67h-50z" />
<glyph unicode="&#x407;" horiz-adv-x="232" d="M92 700h48v-700h-48v700zM33 772v67h50v-67h-50zM149 772v67h50v-67h-50z" />
<glyph unicode="&#xb0;" horiz-adv-x="264" d="M37 605q0 39 27.5 66.5t67.5 28.5q39 -1 67 -28.5t28 -66.5q0 -40 -28 -68t-67 -27q-40 0 -67.5 27.5t-27.5 67.5zM67 605q-1 -27 18.5 -46t46.5 -19q26 0 45.5 19t19.5 46q0 26 -19.5 45t-45.5 20q-27 0 -46 -19.5t-19 -45.5z" />
<glyph unicode="&#xb1;" horiz-adv-x="600" d="M50 435h235v215h30v-215h235v-30h-235v-195h-30v195h-235v30zM50 110h500v-30h-500v30z" />
<glyph unicode="&#xb2;" horiz-adv-x="232" d="M92 700h48v-700h-48v700z" />
<glyph unicode="&#x406;" horiz-adv-x="232" d="M92 700h48v-700h-48v700z" />
<glyph unicode="&#xb3;" horiz-adv-x="202" d="M79 508h44v-508h-44v508zM76 627v73h50v-73h-50z" />
<glyph unicode="&#x456;" horiz-adv-x="202" d="M79 508h44v-508h-44v508zM76 627v73h50v-73h-50z" />
<glyph unicode="&#xb4;" horiz-adv-x="403" d="M123 473v-473h-44v508h274v132h41l3 -167h-274z" />
<glyph unicode="&#x491;" horiz-adv-x="403" d="M123 473v-473h-44v508h274v132h41l3 -167h-274z" />
<glyph unicode="&#xb5;" horiz-adv-x="554" d="M123 62v-247h-44v693h44v-277q-1 -111 37 -160t110 -49q75 0 111 53t36 156v277h44v-414q-1 -37 9.5 -50.5t33.5 -10.5l10 1v-34q-9 -1 -18 -2.5t-15 -1.5q-32 0 -48 20t-16 56q-28 -48 -65 -70t-82 -22q-44 0 -83.5 21t-63.5 61z" />
<glyph unicode="&#xb6;" horiz-adv-x="400" d="M185 -185v595q-64 -1 -104.5 40.5t-40.5 104.5q-1 62 40 103.5t105 41.5h35v-885h-35zM298 -185v885h35v-885h-35z" />
<glyph unicode="&#xb8;" horiz-adv-x="558" d="M455 147h44q-13 -74 -66.5 -120.5t-145.5 -46.5q-118 0 -176.5 74.5t-57.5 206.5q0 131 63.5 199t170.5 68q101 -1 159.5 -65t58.5 -195v-19h-406q1 -115 52.5 -174.5t137.5 -59.5q62 -1 108 33.5t58 98.5zM99 284h359q-1 100 -48 154t-126 55q-82 -1 -132.5 -55.5 t-52.5 -153.5zM150 627v73h50v-73h-50zM358 627v73h50v-73h-50z" />
<glyph unicode="&#x451;" horiz-adv-x="558" d="M455 147h44q-13 -74 -66.5 -120.5t-145.5 -46.5q-118 0 -176.5 74.5t-57.5 206.5q0 131 63.5 199t170.5 68q101 -1 159.5 -65t58.5 -195v-19h-406q1 -115 52.5 -174.5t137.5 -59.5q62 -1 108 33.5t58 98.5zM99 284h359q-1 100 -48 154t-126 55q-82 -1 -132.5 -55.5 t-52.5 -153.5zM150 627v73h50v-73h-50zM358 627v73h50v-73h-50z" />
<glyph unicode="&#xb9;" horiz-adv-x="1040" d="M140 634v-634h-48v700h60l421 -634v634h48v-700h-60zM697 480q0 88 44 133.5t106 46.5q61 0 105.5 -46t44.5 -134q0 -89 -44.5 -134.5t-105.5 -45.5q-62 0 -106 45.5t-44 134.5zM742 480q0 -61 26 -103t79 -42q52 0 78.5 42t26.5 103q-1 60 -27 102.5t-78 42.5 q-53 0 -79 -42.5t-26 -102.5zM710 158v42h274v-42h-274z" />
<glyph unicode="&#x2116;" horiz-adv-x="1040" d="M140 634v-634h-48v700h60l421 -634v634h48v-700h-60zM697 480q0 88 44 133.5t106 46.5q61 0 105.5 -46t44.5 -134q0 -89 -44.5 -134.5t-105.5 -45.5q-62 0 -106 45.5t-44 134.5zM742 480q0 -61 26 -103t79 -42q52 0 78.5 42t26.5 103q-1 60 -27 102.5t-78 42.5 q-53 0 -79 -42.5t-26 -102.5zM710 158v42h274v-42h-274z" />
<glyph unicode="&#xba;" horiz-adv-x="527" d="M347 286v-35h-248q1 -102 46.5 -169t138.5 -67q70 -1 110.5 42.5t49.5 116.5h43q-12 -97 -62.5 -145.5t-140.5 -48.5q-116 0 -174 77t-57 205q-1 131 61.5 198t169.5 68q91 0 140 -46t57 -119h-43q-9 62 -51 95.5t-103 34.5q-89 -1 -136 -61t-49 -146h248z" />
<glyph unicode="&#x454;" horiz-adv-x="527" d="M347 286v-35h-248q1 -102 46.5 -169t138.5 -67q70 -1 110.5 42.5t49.5 116.5h43q-12 -97 -62.5 -145.5t-140.5 -48.5q-116 0 -174 77t-57 205q-1 131 61.5 198t169.5 68q91 0 140 -46t57 -119h-43q-9 62 -51 95.5t-103 34.5q-89 -1 -136 -61t-49 -146h248z" />
<glyph unicode="&#xbb;" horiz-adv-x="462" d="M372 275l-121 102v50l149 -130v-44l-149 -130v50zM196 275l-121 102v50l149 -130v-44l-149 -130v50z" />
<glyph unicode="&#xbc;" horiz-adv-x="202" d="M79 508h44v-571q-1 -70 -25 -97t-74 -27q-8 0 -16 1t-15 1v37h7.5t6.5 -1q40 0 56 20t16 72v565zM76 627v73h50v-73h-50z" />
<glyph unicode="&#x458;" horiz-adv-x="202" d="M79 508h44v-571q-1 -70 -25 -97t-74 -27q-8 0 -16 1t-15 1v37h7.5t6.5 -1q40 0 56 20t16 72v565zM76 627v73h50v-73h-50z" />
<glyph unicode="&#xbd;" horiz-adv-x="634" d="M53 219h50q-1 -88 57.5 -140.5t166.5 -52.5q100 0 152 43t52 118q0 55 -38.5 90.5t-129.5 55.5q-3 0 -2.5 0t-86.5 18q-116 23 -162 63.5t-46 111.5q0 88 63.5 142.5t188.5 54.5q111 0 173.5 -55.5t69.5 -143.5h-50q-6 72 -57 114.5t-139 42.5q-93 0 -146.5 -41.5 t-52.5 -108.5q0 -58 36.5 -88.5t164.5 -53.5q157 -29 210.5 -76.5t53.5 -126.5q0 -102 -67.5 -152t-187.5 -50q-135 0 -205 64.5t-68 170.5z" />
<glyph unicode="&#x405;" horiz-adv-x="634" d="M53 219h50q-1 -88 57.5 -140.5t166.5 -52.5q100 0 152 43t52 118q0 55 -38.5 90.5t-129.5 55.5q-3 0 -2.5 0t-86.5 18q-116 23 -162 63.5t-46 111.5q0 88 63.5 142.5t188.5 54.5q111 0 173.5 -55.5t69.5 -143.5h-50q-6 72 -57 114.5t-139 42.5q-93 0 -146.5 -41.5 t-52.5 -108.5q0 -58 36.5 -88.5t164.5 -53.5q157 -29 210.5 -76.5t53.5 -126.5q0 -102 -67.5 -152t-187.5 -50q-135 0 -205 64.5t-68 170.5z" />
<glyph unicode="&#xbe;" horiz-adv-x="470" d="M40 145h45q0 -55 40 -92.5t114 -37.5q70 0 107.5 31.5t37.5 83.5q-1 38 -24.5 60.5t-97.5 42.5q-2 0 0 -0.5t-55 13.5q-84 19 -118 52t-34 94q-1 61 43 98.5t131 37.5q83 0 131.5 -38t54.5 -112h-45q-2 49 -36.5 81.5t-102.5 33.5q-61 0 -96 -27t-34 -76q-1 -40 21.5 -63 t133.5 -49q108 -27 141 -58t33 -85q0 -71 -49 -113t-148 -42q-85 1 -139.5 44.5t-53.5 120.5z" />
<glyph unicode="&#x455;" horiz-adv-x="470" d="M40 145h45q0 -55 40 -92.5t114 -37.5q70 0 107.5 31.5t37.5 83.5q-1 38 -24.5 60.5t-97.5 42.5q-2 0 0 -0.5t-55 13.5q-84 19 -118 52t-34 94q-1 61 43 98.5t131 37.5q83 0 131.5 -38t54.5 -112h-45q-2 49 -36.5 81.5t-102.5 33.5q-61 0 -96 -27t-34 -76q-1 -40 21.5 -63 t133.5 -49q108 -27 141 -58t33 -85q0 -71 -49 -113t-148 -42q-85 1 -139.5 44.5t-53.5 120.5z" />
<glyph unicode="&#xbf;" horiz-adv-x="202" d="M79 508h44v-508h-44v508zM29 627v73h50v-73h-50zM123 627v73h50v-73h-50z" />
<glyph unicode="&#x457;" horiz-adv-x="202" d="M79 508h44v-508h-44v508zM29 627v73h50v-73h-50zM123 627v73h50v-73h-50z" />
<glyph unicode="&#xc0;" horiz-adv-x="600" d="M142 227l-86 -227h-53l267 700h60l267 -700h-53l-86 227h-316zM157 269h286l-143 391z" />
<glyph unicode="&#x410;" horiz-adv-x="600" d="M142 227l-86 -227h-53l267 700h60l267 -700h-53l-86 227h-316zM157 269h286l-143 391z" />
<glyph unicode="&#xc1;" horiz-adv-x="648" d="M140 658v-262h229q119 -1 176 -53.5t57 -144.5q0 -100 -60.5 -149t-170.5 -49h-279v700h464v-42h-416zM140 354v-312h231q88 -1 134.5 38t46.5 116q0 71 -45 114t-137 44h-230z" />
<glyph unicode="&#x411;" horiz-adv-x="648" d="M140 658v-262h229q119 -1 176 -53.5t57 -144.5q0 -100 -60.5 -149t-170.5 -49h-279v700h464v-42h-416zM140 354v-312h231q88 -1 134.5 38t46.5 116q0 71 -45 114t-137 44h-230z" />
<glyph unicode="&#xc2;" horiz-adv-x="674" d="M92 700h275q103 -1 153 -46.5t51 -127.5q0 -62 -32.5 -102.5t-85.5 -53.5v-2q64 -7 106.5 -54.5t42.5 -119.5q0 -94 -61 -144t-181 -50h-268v700zM140 658v-273h216q85 0 126 38t41 106q0 59 -39.5 94t-116.5 35h-227zM140 343v-301h221q101 -1 146 39.5t45 112.5 q0 74 -46 111t-149 38h-217z" />
<glyph unicode="&#x412;" horiz-adv-x="674" d="M92 700h275q103 -1 153 -46.5t51 -127.5q0 -62 -32.5 -102.5t-85.5 -53.5v-2q64 -7 106.5 -54.5t42.5 -119.5q0 -94 -61 -144t-181 -50h-268v700zM140 658v-273h216q85 0 126 38t41 106q0 59 -39.5 94t-116.5 35h-227zM140 343v-301h221q101 -1 146 39.5t45 112.5 q0 74 -46 111t-149 38h-217z" />
<glyph unicode="&#xc3;" horiz-adv-x="526" d="M140 658v-658h-48v700h428v-42h-380z" />
<glyph unicode="&#x413;" horiz-adv-x="526" d="M140 658v-658h-48v700h428v-42h-380z" />
<glyph unicode="&#xc4;" horiz-adv-x="704" d="M590 42h101l-6 -200h-44v158h-591v-158h-44l-6 200h66q75 83 112 214.5t38 309.5v134h374v-658zM542 658h-278v-91q-1 -170 -33.5 -298t-106.5 -227h418v616z" />
<glyph unicode="&#x414;" horiz-adv-x="704" d="M590 42h101l-6 -200h-44v158h-591v-158h-44l-6 200h66q75 83 112 214.5t38 309.5v134h374v-658zM542 658h-278v-91q-1 -170 -33.5 -298t-106.5 -227h418v616z" />
<glyph unicode="&#xc5;" horiz-adv-x="592" d="M140 385h383v-42h-383v-301h428v-42h-476v700h464v-42h-416v-273z" />
<glyph unicode="&#x415;" horiz-adv-x="592" d="M140 385h383v-42h-383v-301h428v-42h-476v700h464v-42h-416v-273z" />
<glyph unicode="&#xc6;" horiz-adv-x="838" d="M395 0v368l-334 -368h-61l342 374l-336 326h57l332 -324v324h48v-324l332 324h57l-336 -326l342 -374h-61l-334 368v-368h-48z" />
<glyph unicode="&#x416;" horiz-adv-x="838" d="M395 0v368l-334 -368h-61l342 374l-336 326h57l332 -324v324h48v-324l332 324h57l-336 -326l342 -374h-61l-334 368v-368h-48z" />
<glyph unicode="&#xc7;" horiz-adv-x="643" d="M53 199h48q6 -83 63 -130.5t164 -47.5q92 0 145.5 45t53.5 124q0 80 -51.5 120.5t-135.5 41.5h-87v42h83q79 -1 121.5 36t42.5 101t-46 106t-139 42q-94 0 -144 -42.5t-52 -109.5h-48q5 95 71 144.5t174 49.5q113 0 172 -54.5t60 -138.5q0 -59 -33.5 -99t-87.5 -51v-2 q72 -13 110.5 -64.5t39.5 -124.5q0 -97 -65.5 -152.5t-181.5 -55.5q-125 0 -198.5 55.5t-78.5 164.5z" />
<glyph unicode="&#x417;" horiz-adv-x="643" d="M53 199h48q6 -83 63 -130.5t164 -47.5q92 0 145.5 45t53.5 124q0 80 -51.5 120.5t-135.5 41.5h-87v42h83q79 -1 121.5 36t42.5 101t-46 106t-139 42q-94 0 -144 -42.5t-52 -109.5h-48q5 95 71 144.5t174 49.5q113 0 172 -54.5t60 -138.5q0 -59 -33.5 -99t-87.5 -51v-2 q72 -13 110.5 -64.5t39.5 -124.5q0 -97 -65.5 -152.5t-181.5 -55.5q-125 0 -198.5 55.5t-78.5 164.5z" />
<glyph unicode="&#xc8;" horiz-adv-x="712" d="M140 66l428 634h52v-700h-48v637l-428 -637h-52v700h48v-634z" />
<glyph unicode="&#x418;" horiz-adv-x="712" d="M140 66l428 634h52v-700h-48v637l-428 -637h-52v700h48v-634z" />
<glyph unicode="&#xc9;" horiz-adv-x="712" d="M140 66l428 634h52v-700h-48v637l-428 -637h-52v700h48v-634zM210 852h44q2 -39 30 -63t72 -24q43 0 71 24t31 63h44q-5 -52 -44 -87t-102 -35q-64 0 -103 35t-43 87z" />
<glyph unicode="&#x419;" horiz-adv-x="712" d="M140 66l428 634h52v-700h-48v637l-428 -637h-52v700h48v-634zM210 852h44q2 -39 30 -63t72 -24q43 0 71 24t31 63h44q-5 -52 -44 -87t-102 -35q-64 0 -103 35t-43 87z" />
<glyph unicode="&#xca;" horiz-adv-x="625" d="M140 310l400 390h64l-293 -285l314 -415h-62l-287 383l-136 -133v-250h-48v700h48v-390z" />
<glyph unicode="&#x41a;" horiz-adv-x="625" d="M140 310l400 390h64l-293 -285l314 -415h-62l-287 383l-136 -133v-250h-48v700h48v-390z" />
<glyph unicode="&#xcb;" horiz-adv-x="652" d="M0 0v42q3 -1 8 -1h16q73 0 112 83.5t39 366.5v209h385v-700h-48v658h-289v-161q0 -280 -41.5 -389t-148.5 -109q-18 0 -23.5 0.5t-9.5 0.5z" />
<glyph unicode="&#x41b;" horiz-adv-x="652" d="M0 0v42q3 -1 8 -1h16q73 0 112 83.5t39 366.5v209h385v-700h-48v658h-289v-161q0 -280 -41.5 -389t-148.5 -109q-18 0 -23.5 0.5t-9.5 0.5z" />
<glyph unicode="&#xcc;" horiz-adv-x="844" d="M398 0l-258 634h-2l2 -27v-607h-48v700h73l257 -637l257 637h73v-700h-48v607l2 27h-2l-258 -634h-48z" />
<glyph unicode="&#x41c;" horiz-adv-x="844" d="M398 0l-258 634h-2l2 -27v-607h-48v700h73l257 -637l257 637h73v-700h-48v607l2 27h-2l-258 -634h-48z" />
<glyph unicode="&#xcd;" horiz-adv-x="688" d="M140 350v-350h-48v700h48v-308h408v308h48v-700h-48v350h-408z" />
<glyph unicode="&#x41d;" horiz-adv-x="688" d="M140 350v-350h-48v700h48v-308h408v308h48v-700h-48v350h-408z" />
<glyph unicode="&#xce;" horiz-adv-x="778" d="M66 350q-1 173 84.5 272t238.5 99q152 0 237.5 -99t85.5 -272q-1 -174 -86 -272.5t-237 -98.5q-153 0 -238 98.5t-85 272.5zM116 350q-1 -155 70.5 -242t202.5 -87q130 -1 201.5 86.5t71.5 242.5q0 154 -71.5 241.5t-201.5 87.5q-131 0 -202 -87.5t-71 -241.5z" />
<glyph unicode="&#x41e;" horiz-adv-x="778" d="M66 350q-1 173 84.5 272t238.5 99q152 0 237.5 -99t85.5 -272q-1 -174 -86 -272.5t-237 -98.5q-153 0 -238 98.5t-85 272.5zM116 350q-1 -155 70.5 -242t202.5 -87q130 -1 201.5 86.5t71.5 242.5q0 154 -71.5 241.5t-201.5 87.5q-131 0 -202 -87.5t-71 -241.5z" />
<glyph unicode="&#xcf;" horiz-adv-x="688" d="M140 658v-658h-48v700h504v-700h-48v658h-408z" />
<glyph unicode="&#x41f;" horiz-adv-x="688" d="M140 658v-658h-48v700h504v-700h-48v658h-408z" />
<glyph unicode="&#xd0;" horiz-adv-x="614" d="M92 700h256q112 -1 169 -47.5t57 -142.5q0 -95 -57.5 -148.5t-180.5 -53.5h-196v-308h-48v700zM140 658v-308h196q90 -1 139 37.5t49 121.5q-1 73 -46.5 111t-141.5 38h-196z" />
<glyph unicode="&#x420;" horiz-adv-x="614" d="M92 700h256q112 -1 169 -47.5t57 -142.5q0 -95 -57.5 -148.5t-180.5 -53.5h-196v-308h-48v700zM140 658v-308h196q90 -1 139 37.5t49 121.5q-1 73 -46.5 111t-141.5 38h-196z" />
<glyph unicode="&#xd1;" horiz-adv-x="717" d="M617 222h50q-11 -105 -84.5 -174t-202.5 -69q-156 0 -235 104t-79 255q0 177 80.5 280t236.5 103q130 0 200 -63t76 -160h-50q-5 84 -67.5 132.5t-158.5 48.5q-128 0 -197.5 -90.5t-69.5 -248.5q-1 -144 70 -231.5t195 -87.5q101 0 164 56t72 145z" />
<glyph unicode="&#x421;" horiz-adv-x="717" d="M617 222h50q-11 -105 -84.5 -174t-202.5 -69q-156 0 -235 104t-79 255q0 177 80.5 280t236.5 103q130 0 200 -63t76 -160h-50q-5 84 -67.5 132.5t-158.5 48.5q-128 0 -197.5 -90.5t-69.5 -248.5q-1 -144 70 -231.5t195 -87.5q101 0 164 56t72 145z" />
<glyph unicode="&#xd2;" horiz-adv-x="536" d="M244 658h-238v42h524v-42h-238v-658h-48v658z" />
<glyph unicode="&#x422;" horiz-adv-x="536" d="M244 658h-238v42h524v-42h-238v-658h-48v658z" />
<glyph unicode="&#xd3;" horiz-adv-x="549" d="M303 221l194 479h52l-239 -590q-26 -64 -60 -92t-92 -28q-18 0 -32 2.5t-28 6.5v42q14 -5 28.5 -7t28.5 -2q44 0 71.5 29t51.5 99l-265 540h59z" />
<glyph unicode="&#x423;" horiz-adv-x="549" d="M303 221l194 479h52l-239 -590q-26 -64 -60 -92t-92 -28q-18 0 -32 2.5t-28 6.5v42q14 -5 28.5 -7t28.5 -2q44 0 71.5 29t51.5 99l-265 540h59z" />
<glyph unicode="&#xd4;" horiz-adv-x="852" d="M402 -20v110h-67q-142 -1 -214.5 71t-72.5 196t72.5 193t226.5 70h55v100h48v-100h55q153 -1 226 -70t73 -193q-1 -131 -76.5 -199t-210.5 -68h-67v-110h-48zM402 132v446h-49q-128 -1 -191.5 -56.5t-63.5 -165.5q-1 -105 58.5 -164.5t179.5 -59.5h66zM450 132h66 q119 0 178.5 59.5t59.5 164.5q-1 110 -64.5 165.5t-190.5 56.5h-49v-446z" />
<glyph unicode="&#x424;" horiz-adv-x="852" d="M402 -20v110h-67q-142 -1 -214.5 71t-72.5 196t72.5 193t226.5 70h55v100h48v-100h55q153 -1 226 -70t73 -193q-1 -131 -76.5 -199t-210.5 -68h-67v-110h-48zM402 132v446h-49q-128 -1 -191.5 -56.5t-63.5 -165.5q-1 -105 58.5 -164.5t179.5 -59.5h66zM450 132h66 q119 0 178.5 59.5t59.5 164.5q-1 110 -64.5 165.5t-190.5 56.5h-49v-446z" />
<glyph unicode="&#xd5;" horiz-adv-x="542" d="M271 395l203 305h58l-228 -342l234 -358h-62l-205 320l-205 -320h-62l234 358l-228 342h58z" />
<glyph unicode="&#x425;" horiz-adv-x="542" d="M271 395l203 305h58l-228 -342l234 -358h-62l-205 320l-205 -320h-62l234 358l-228 342h58z" />
<glyph unicode="&#xd6;" horiz-adv-x="710" d="M140 42h408v658h48v-658h101l-6 -200h-44v158h-555v700h48v-658z" />
<glyph unicode="&#x426;" horiz-adv-x="710" d="M140 42h408v658h48v-658h101l-6 -200h-44v158h-555v700h48v-658z" />
<glyph unicode="&#xd7;" horiz-adv-x="606" d="M72 700h48v-227q0 -74 36.5 -98.5t161.5 -23.5q24 0 63 1.5t85 5.5v342h48v-700h-48v316q-46 -4 -84.5 -5.5t-67.5 -1.5q-153 0 -198 37t-44 131v223z" />
<glyph unicode="&#x427;" horiz-adv-x="606" d="M72 700h48v-227q0 -74 36.5 -98.5t161.5 -23.5q24 0 63 1.5t85 5.5v342h48v-700h-48v316q-46 -4 -84.5 -5.5t-67.5 -1.5q-153 0 -198 37t-44 131v223z" />
<glyph unicode="&#xd8;" horiz-adv-x="1024" d="M140 42h348v658h48v-658h348v658h48v-700h-840v700h48v-658z" />
<glyph unicode="&#x428;" horiz-adv-x="1024" d="M140 42h348v658h48v-658h348v658h48v-700h-840v700h48v-658z" />
<glyph unicode="&#xd9;" horiz-adv-x="1046" d="M140 700v-658h348v658h48v-658h348v658h48v-658h101l-6 -200h-44v158h-891v700h48z" />
<glyph unicode="&#x429;" horiz-adv-x="1046" d="M140 700v-658h348v658h48v-658h348v658h48v-658h101l-6 -200h-44v158h-891v700h48z" />
<glyph unicode="&#xda;" horiz-adv-x="684" d="M212 700v-304h199q118 0 175.5 -53t57.5 -145q0 -100 -58 -149t-163 -49h-259v658h-160v42h208zM212 354v-312h211q81 0 126 38t45 116t-49 117.5t-133 40.5h-200z" />
<glyph unicode="&#x42a;" horiz-adv-x="684" d="M212 700v-304h199q118 0 175.5 -53t57.5 -145q0 -100 -58 -149t-163 -49h-259v658h-160v42h208zM212 354v-312h211q81 0 126 38t45 116t-49 117.5t-133 40.5h-200z" />
<glyph unicode="&#xdb;" horiz-adv-x="806" d="M140 700v-304h199q118 0 175.5 -53t57.5 -145q0 -100 -58 -149t-163 -49h-259v700h48zM140 354v-312h211q81 0 126 38t45 116t-49 117.5t-133 40.5h-200zM666 700h48v-700h-48v700z" />
<glyph unicode="&#x42b;" horiz-adv-x="806" d="M140 700v-304h199q118 0 175.5 -53t57.5 -145q0 -100 -58 -149t-163 -49h-259v700h48zM140 354v-312h211q81 0 126 38t45 116t-49 117.5t-133 40.5h-200zM666 700h48v-700h-48v700z" />
<glyph unicode="&#xdc;" horiz-adv-x="612" d="M140 700v-304h199q118 0 175.5 -53t57.5 -145q0 -100 -58 -149t-163 -49h-259v700h48zM140 354v-312h211q81 0 126 38t45 116t-49 117.5t-133 40.5h-200z" />
<glyph unicode="&#x42c;" horiz-adv-x="612" d="M140 700v-304h199q118 0 175.5 -53t57.5 -145q0 -100 -58 -149t-163 -49h-259v700h48zM140 354v-312h211q81 0 126 38t45 116t-49 117.5t-133 40.5h-200z" />
<glyph unicode="&#xdd;" horiz-adv-x="717" d="M227 386h374q-5 131 -68.5 213t-183.5 82q-108 0 -168.5 -51t-66.5 -132h-50q8 101 78.5 163t207.5 62q153 0 227 -103t74 -266q0 -183 -85 -281.5t-230 -99.5q-129 0 -203 71t-83 178h50q7 -90 69 -149t167 -58q126 -1 196.5 91.5t68.5 237.5h-374v42z" />
<glyph unicode="&#x42d;" horiz-adv-x="717" d="M227 386h374q-5 131 -68.5 213t-183.5 82q-108 0 -168.5 -51t-66.5 -132h-50q8 101 78.5 163t207.5 62q153 0 227 -103t74 -266q0 -183 -85 -281.5t-230 -99.5q-129 0 -203 71t-83 178h50q7 -90 69 -149t167 -58q126 -1 196.5 91.5t68.5 237.5h-374v42z" />
<glyph unicode="&#xde;" horiz-adv-x="971" d="M140 391h120q7 149 90.5 239.5t231.5 90.5q152 0 237 -99t86 -272q-1 -174 -86 -272.5t-237 -98.5q-149 0 -237 97t-86 273h-119v-349h-48v700h48v-309zM582 21q130 0 201.5 87t71.5 242q0 154 -71.5 241.5t-201.5 87.5q-131 0 -202 -87.5t-71 -241.5q0 -155 71 -242 t202 -87z" />
<glyph unicode="&#x42e;" horiz-adv-x="971" d="M140 391h120q7 149 90.5 239.5t231.5 90.5q152 0 237 -99t86 -272q-1 -174 -86 -272.5t-237 -98.5q-149 0 -237 97t-86 273h-119v-349h-48v700h48v-309zM582 21q130 0 201.5 87t71.5 242q0 154 -71.5 241.5t-201.5 87.5q-131 0 -202 -87.5t-71 -241.5q0 -155 71 -242 t202 -87z" />
<glyph unicode="&#xdf;" horiz-adv-x="666" d="M526 301h-222l-177 -301h-55l182 305q-81 8 -131.5 56.5t-50.5 137.5q0 100 65 150.5t171 50.5h266v-700h-48v301zM526 658h-223q-91 0 -136 -45t-45 -112q0 -81 48.5 -119.5t141.5 -38.5h214v315z" />
<glyph unicode="&#x42f;" horiz-adv-x="666" d="M526 301h-222l-177 -301h-55l182 305q-81 8 -131.5 56.5t-50.5 137.5q0 100 65 150.5t171 50.5h266v-700h-48v301zM526 658h-223q-91 0 -136 -45t-45 -112q0 -81 48.5 -119.5t141.5 -38.5h214v315z" />
<glyph unicode="&#xe0;" horiz-adv-x="537" d="M114 367h-44q1 72 48.5 116.5t145.5 44.5q88 -1 134.5 -39.5t45.5 -119.5l-5 -278q-1 -31 9.5 -45.5t29.5 -14.5q4 0 9 0.5t10 2.5v-34q-10 -2 -18 -3.5t-15 -1.5q-38 0 -55 24.5t-14 69.5q-24 -48 -70.5 -74t-110.5 -27q-79 0 -123.5 36.5t-44.5 109.5q0 66 43.5 103.5 t167.5 49.5q10 0 22.5 1.5t34.5 4.5q66 7 75.5 22t10.5 60q0 54 -34 86t-102 32q-77 0 -113.5 -34t-36.5 -92zM395 218l1 63q-9 -7 -19.5 -12t-124.5 -18q-96 -12 -128 -38t-32 -79q-1 -51 32.5 -81t90.5 -30q80 0 129 51t51 144z" />
<glyph unicode="&#x430;" horiz-adv-x="537" d="M114 367h-44q1 72 48.5 116.5t145.5 44.5q88 -1 134.5 -39.5t45.5 -119.5l-5 -278q-1 -31 9.5 -45.5t29.5 -14.5q4 0 9 0.5t10 2.5v-34q-10 -2 -18 -3.5t-15 -1.5q-38 0 -55 24.5t-14 69.5q-24 -48 -70.5 -74t-110.5 -27q-79 0 -123.5 36.5t-44.5 109.5q0 66 43.5 103.5 t167.5 49.5q10 0 22.5 1.5t34.5 4.5q66 7 75.5 22t10.5 60q0 54 -34 86t-102 32q-77 0 -113.5 -34t-36.5 -92zM395 218l1 63q-9 -7 -19.5 -12t-124.5 -18q-96 -12 -128 -38t-32 -79q-1 -51 32.5 -81t90.5 -30q80 0 129 51t51 144z" />
<glyph unicode="&#xe1;" horiz-adv-x="591" d="M463 725h44q-2 -22 -10.5 -37.5t-220.5 -63.5q-78 -18 -118 -73t-45 -151h2q18 52 66.5 86t126.5 34q108 0 169 -67t61 -202q0 -132 -59 -202t-175 -70q-123 0 -179.5 76.5t-56.5 227.5q0 182 46.5 271.5t159.5 113.5q179 36 182.5 42.5t6.5 14.5zM114 255 q0 -105 46.5 -173.5t140.5 -67.5q89 0 140 58t51 180q-1 116 -49 174.5t-138 58.5q-98 0 -144.5 -62t-46.5 -168z" />
<glyph unicode="&#x431;" horiz-adv-x="591" d="M463 725h44q-2 -22 -10.5 -37.5t-220.5 -63.5q-78 -18 -118 -73t-45 -151h2q18 52 66.5 86t126.5 34q108 0 169 -67t61 -202q0 -132 -59 -202t-175 -70q-123 0 -179.5 76.5t-56.5 227.5q0 182 46.5 271.5t159.5 113.5q179 36 182.5 42.5t6.5 14.5zM114 255 q0 -105 46.5 -173.5t140.5 -67.5q89 0 140 58t51 180q-1 116 -49 174.5t-138 58.5q-98 0 -144.5 -62t-46.5 -168z" />
<glyph unicode="&#xe2;" horiz-adv-x="508" d="M79 508h198q77 0 116.5 -32t39.5 -95q0 -40 -22 -68.5t-63 -42.5v-2q52 -12 78.5 -47t26.5 -82q0 -72 -44.5 -105.5t-135.5 -33.5h-194v508zM123 473v-188h148q58 -1 88 25t30 72q0 43 -28 66.5t-84 24.5h-154zM123 250v-215h149q68 -1 101.5 27.5t33.5 76.5 q0 56 -35.5 83t-101.5 28h-147z" />
<glyph unicode="&#x432;" horiz-adv-x="508" d="M79 508h198q77 0 116.5 -32t39.5 -95q0 -40 -22 -68.5t-63 -42.5v-2q52 -12 78.5 -47t26.5 -82q0 -72 -44.5 -105.5t-135.5 -33.5h-194v508zM123 473v-188h148q58 -1 88 25t30 72q0 43 -28 66.5t-84 24.5h-154zM123 250v-215h149q68 -1 101.5 27.5t33.5 76.5 q0 56 -35.5 83t-101.5 28h-147z" />
<glyph unicode="&#xe3;" horiz-adv-x="403" d="M123 473v-473h-44v508h318v-35h-274z" />
<glyph unicode="&#x433;" horiz-adv-x="403" d="M123 473v-473h-44v508h318v-35h-274z" />
<glyph unicode="&#xe4;" horiz-adv-x="562" d="M4 35h57q44 63 64 155t21 238v80h319v-473h89l-3 -167h-41v132h-462v-132h-41zM421 473h-233v-83q-1 -109 -20.5 -198t-59.5 -157h313v438z" />
<glyph unicode="&#x434;" horiz-adv-x="562" d="M4 35h57q44 63 64 155t21 238v80h319v-473h89l-3 -167h-41v132h-462v-132h-41zM421 473h-233v-83q-1 -109 -20.5 -198t-59.5 -157h313v438z" />
<glyph unicode="&#xe5;" horiz-adv-x="558" d="M455 147h44q-13 -74 -66.5 -120.5t-145.5 -46.5q-118 0 -176 74.5t-58 206.5q0 131 63.5 199t170.5 68q110 0 164.5 -70.5t53.5 -208.5h-406q1 -115 52.5 -174.5t137.5 -59.5q62 -1 108 33.5t58 98.5zM99 284h359q-1 100 -48 154t-126 55q-82 -1 -132.5 -55.5 t-52.5 -153.5z" />
<glyph unicode="&#x435;" horiz-adv-x="558" d="M455 147h44q-13 -74 -66.5 -120.5t-145.5 -46.5q-118 0 -176 74.5t-58 206.5q0 131 63.5 199t170.5 68q110 0 164.5 -70.5t53.5 -208.5h-406q1 -115 52.5 -174.5t137.5 -59.5q62 -1 108 33.5t58 98.5zM99 284h359q-1 100 -48 154t-126 55q-82 -1 -132.5 -55.5 t-52.5 -153.5z" />
<glyph unicode="&#xe6;" horiz-adv-x="634" d="M295 0v263l-239 -263h-56l247 266l-232 242h54l226 -239v239h44v-239l226 239h54l-232 -242l247 -266h-56l-239 263v-263h-44z" />
<glyph unicode="&#x436;" horiz-adv-x="634" d="M295 0v263l-239 -263h-56l247 266l-232 242h54l226 -239v239h44v-239l226 239h54l-232 -242l247 -266h-56l-239 263v-263h-44z" />
<glyph unicode="&#xe7;" horiz-adv-x="487" d="M40 152h44q1 -58 43.5 -97.5t110.5 -39.5q74 0 113.5 32t39.5 91q0 55 -34 86t-100 32h-85v35h79q65 -1 96.5 26t31.5 75q0 46 -36 73.5t-97 27.5q-66 0 -100 -30t-38 -78h-44q6 70 54 106.5t130 36.5q86 0 130 -37t45 -102q0 -44 -25 -73.5t-67 -40.5v-2q48 -9 77 -47 t29 -91q0 -70 -52 -112.5t-147 -42.5t-146.5 49t-51.5 123z" />
<glyph unicode="&#x437;" horiz-adv-x="487" d="M40 152h44q1 -58 43.5 -97.5t110.5 -39.5q74 0 113.5 32t39.5 91q0 55 -34 86t-100 32h-85v35h79q65 -1 96.5 26t31.5 75q0 46 -36 73.5t-97 27.5q-66 0 -100 -30t-38 -78h-44q6 70 54 106.5t130 36.5q86 0 130 -37t45 -102q0 -44 -25 -73.5t-67 -40.5v-2q48 -9 77 -47 t29 -91q0 -70 -52 -112.5t-147 -42.5t-146.5 49t-51.5 123z" />
<glyph unicode="&#xe8;" horiz-adv-x="556" d="M123 50l302 458h52v-508h-44v458l-302 -458h-52v508h44v-458z" />
<glyph unicode="&#x438;" horiz-adv-x="556" d="M123 50l302 458h52v-508h-44v458l-302 -458h-52v508h44v-458z" />
<glyph unicode="&#xe9;" horiz-adv-x="556" d="M123 50l302 458h52v-508h-44v458l-302 -458h-52v508h44v-458zM379 700h37q-6 -54 -43.5 -85.5t-94.5 -31.5q-58 0 -95.5 31.5t-42.5 85.5h37q2 -41 30 -64t71 -23q42 0 70 23t31 64z" />
<glyph unicode="&#x439;" horiz-adv-x="556" d="M123 50l302 458h52v-508h-44v458l-302 -458h-52v508h44v-458zM379 700h37q-6 -54 -43.5 -85.5t-94.5 -31.5q-58 0 -95.5 31.5t-42.5 85.5h37q2 -41 30 -64t71 -23q42 0 70 23t31 64z" />
<glyph unicode="&#xea;" horiz-adv-x="444" d="M123 273l249 235h56l-254 -235l270 -273h-60l-261 265v-265h-44v508h44v-235z" />
<glyph unicode="&#x43a;" horiz-adv-x="444" d="M123 273l249 235h56l-254 -235l270 -273h-60l-261 265v-265h-44v508h44v-235z" />
<glyph unicode="&#xeb;" horiz-adv-x="515" d="M6 0v35q3 -1 7.5 -1h12.5q59 0 84 58t25 256v160h301v-508h-44v473h-215v-124q0 -202 -32.5 -276t-116.5 -74q-7 0 -12.5 0.5t-9.5 0.5z" />
<glyph unicode="&#x43b;" horiz-adv-x="515" d="M6 0v35q3 -1 7.5 -1h12.5q59 0 84 58t25 256v160h301v-508h-44v473h-215v-124q0 -202 -32.5 -276t-116.5 -74q-7 0 -12.5 0.5t-9.5 0.5z" />
<glyph unicode="&#xec;" horiz-adv-x="684" d="M319 0l-196 452h-2l2 -27v-425h-44v508h62l201 -458l200 458h63v-508h-44v425l2 27h-2l-197 -452h-45z" />
<glyph unicode="&#x43c;" horiz-adv-x="684" d="M319 0l-196 452h-2l2 -27v-425h-44v508h62l201 -458l200 458h63v-508h-44v425l2 27h-2l-197 -452h-45z" />
<glyph unicode="&#xed;" horiz-adv-x="540" d="M123 252v-252h-44v508h44v-221h294v221h44v-508h-44v252h-294z" />
<glyph unicode="&#x43d;" horiz-adv-x="540" d="M123 252v-252h-44v508h44v-221h294v221h44v-508h-44v252h-294z" />
<glyph unicode="&#xee;" horiz-adv-x="574" d="M53 254q0 135 63 204t171 70q107 0 170.5 -69.5t63.5 -204.5q0 -136 -63.5 -205t-170.5 -69q-108 0 -171 69t-63 205zM99 254q-1 -112 47 -175.5t141 -63.5q92 0 140 63.5t48 175.5q0 111 -48 175t-140 64q-93 0 -140.5 -64t-47.5 -175z" />
<glyph unicode="&#x43e;" horiz-adv-x="574" d="M53 254q0 135 63 204t171 70q107 0 170.5 -69.5t63.5 -204.5q0 -136 -63.5 -205t-170.5 -69q-108 0 -171 69t-63 205zM99 254q-1 -112 47 -175.5t141 -63.5q92 0 140 63.5t48 175.5q0 111 -48 175t-140 64q-93 0 -140.5 -64t-47.5 -175z" />
<glyph unicode="&#xef;" horiz-adv-x="543" d="M123 473v-473h-44v508h385v-508h-44v473h-297z" />
<glyph unicode="&#x43f;" horiz-adv-x="543" d="M123 473v-473h-44v508h385v-508h-44v473h-297z" />
<glyph unicode="&#xf0;" horiz-adv-x="570" d="M79 508h44v-81h2q23 50 70 75.5t104 25.5q101 0 159.5 -69t58.5 -198q0 -133 -59 -207t-161 -74q-60 0 -104.5 25.5t-69.5 79.5v-270h-44v693zM121 251q-1 -108 47.5 -172t130.5 -64q86 0 129 66t43 181q0 104 -45 167t-125 64q-85 0 -132.5 -65.5t-47.5 -176.5z" />
<glyph unicode="&#x440;" horiz-adv-x="570" d="M79 508h44v-81h2q23 50 70 75.5t104 25.5q101 0 159.5 -69t58.5 -198q0 -133 -59 -207t-161 -74q-60 0 -104.5 25.5t-69.5 79.5v-270h-44v693zM121 251q-1 -108 47.5 -172t130.5 -64q86 0 129 66t43 181q0 104 -45 167t-125 64q-85 0 -132.5 -65.5t-47.5 -176.5z" />
<glyph unicode="&#xf1;" horiz-adv-x="527" d="M444 174h43q-12 -99 -62.5 -146.5t-140.5 -47.5q-116 0 -173.5 77t-57.5 205q0 131 61.5 198.5t169.5 67.5q89 0 139 -46t58 -119h-43q-9 62 -51 96t-103 34q-88 -1 -136.5 -62t-48.5 -166q0 -123 50 -186.5t135 -63.5q70 0 110.5 43t49.5 116z" />
<glyph unicode="&#x441;" horiz-adv-x="527" d="M444 174h43q-12 -99 -62.5 -146.5t-140.5 -47.5q-116 0 -173.5 77t-57.5 205q0 131 61.5 198.5t169.5 67.5q89 0 139 -46t58 -119h-43q-9 62 -51 96t-103 34q-88 -1 -136.5 -62t-48.5 -166q0 -123 50 -186.5t135 -63.5q70 0 110.5 43t49.5 116z" />
<glyph unicode="&#xf2;" horiz-adv-x="412" d="M184 473h-178v35h400v-35h-178v-473h-44v473z" />
<glyph unicode="&#x442;" horiz-adv-x="412" d="M184 473h-178v35h400v-35h-178v-473h-44v473z" />
<glyph unicode="&#xf3;" horiz-adv-x="447" d="M79 -185v37q9 -1 17.5 -1.5t17.5 -1.5q33 0 49 15.5t37 77.5l19 57l-206 509h53l176 -456l160 456h45l-214 -590q-26 -69 -50.5 -88t-64.5 -19q-11 0 -20.5 1.5t-18.5 2.5z" />
<glyph unicode="&#x443;" horiz-adv-x="447" d="M79 -185v37q9 -1 17.5 -1.5t17.5 -1.5q33 0 49 15.5t37 77.5l19 57l-206 509h53l176 -456l160 456h45l-214 -590q-26 -69 -50.5 -88t-64.5 -19q-11 0 -20.5 1.5t-18.5 2.5z" />
<glyph unicode="&#xf4;" horiz-adv-x="744" d="M350 -185v172q-150 3 -224 73t-73 196q0 129 75.5 199t221.5 65v180h44v-180q142 3 219.5 -68t77.5 -197t-73 -195.5t-224 -72.5v-172h-44zM350 22v463q-130 2 -190.5 -59t-60.5 -170q0 -115 64.5 -174.5t186.5 -59.5zM394 485v-463q122 0 186.5 59t64.5 174 q0 113 -65.5 171.5t-185.5 58.5z" />
<glyph unicode="&#x444;" horiz-adv-x="744" d="M350 -185v172q-150 3 -224 73t-73 196q0 129 75.5 199t221.5 65v180h44v-180q142 3 219.5 -68t77.5 -197t-73 -195.5t-224 -72.5v-172h-44zM350 22v463q-130 2 -190.5 -59t-60.5 -170q0 -115 64.5 -174.5t186.5 -59.5zM394 485v-463q122 0 186.5 59t64.5 174 q0 113 -65.5 171.5t-185.5 58.5z" />
<glyph unicode="&#xf5;" horiz-adv-x="434" d="M217 297l146 211h53l-171 -243l189 -265h-57l-160 236l-160 -236h-57l189 265l-172 243h54z" />
<glyph unicode="&#x445;" horiz-adv-x="434" d="M217 297l146 211h53l-171 -243l189 -265h-57l-160 236l-160 -236h-57l189 265l-172 243h54z" />
<glyph unicode="&#xf6;" horiz-adv-x="560" d="M123 35h296v473h44v-473h89l-3 -167h-41v132h-429v508h44v-473z" />
<glyph unicode="&#x446;" horiz-adv-x="560" d="M123 35h296v473h44v-473h89l-3 -167h-41v132h-429v508h44v-473z" />
<glyph unicode="&#xf7;" horiz-adv-x="474" d="M53 508h44v-178q0 -53 26.5 -66t101.5 -12q24 0 55 0.5t71 3.5v252h44v-508h-44v221q-34 -3 -62.5 -3.5t-60.5 -0.5q-98 0 -137 18.5t-38 92.5v180z" />
<glyph unicode="&#x447;" horiz-adv-x="474" d="M53 508h44v-178q0 -53 26.5 -66t101.5 -12q24 0 55 0.5t71 3.5v252h44v-508h-44v221q-34 -3 -62.5 -3.5t-60.5 -0.5q-98 0 -137 18.5t-38 92.5v180z" />
<glyph unicode="&#xf8;" horiz-adv-x="774" d="M123 35h242v473h44v-473h242v473h44v-508h-616v508h44v-473z" />
<glyph unicode="&#x448;" horiz-adv-x="774" d="M123 35h242v473h44v-473h242v473h44v-508h-616v508h44v-473z" />
<glyph unicode="&#xf9;" horiz-adv-x="792" d="M123 35h242v473h44v-473h242v473h44v-473h89l-3 -167h-41v132h-661v508h44v-473z" />
<glyph unicode="&#x449;" horiz-adv-x="792" d="M123 35h242v473h44v-473h242v473h44v-473h89l-3 -167h-41v132h-661v508h44v-473z" />
<glyph unicode="&#xfa;" horiz-adv-x="552" d="M6 473v35h172v-208h139q107 0 151 -38.5t44 -113.5q0 -69 -44 -108.5t-133 -39.5h-201v473h-128zM178 265v-230h149q69 -1 103.5 30t35.5 88q0 57 -35 84t-110 28h-143z" />
<glyph unicode="&#x44a;" horiz-adv-x="552" d="M6 473v35h172v-208h139q107 0 151 -38.5t44 -113.5q0 -69 -44 -108.5t-133 -39.5h-201v473h-128zM178 265v-230h149q69 -1 103.5 30t35.5 88q0 57 -35 84t-110 28h-143z" />
<glyph unicode="&#xfb;" horiz-adv-x="646" d="M79 508h44v-208h139q107 0 151 -38.5t44 -113.5q0 -69 -44 -108.5t-133 -39.5h-201v508zM123 265v-230h149q69 -1 104 30t35 88t-35 84t-110 28h-143zM523 508h44v-508h-44v508z" />
<glyph unicode="&#x44b;" horiz-adv-x="646" d="M79 508h44v-208h139q107 0 151 -38.5t44 -113.5q0 -69 -44 -108.5t-133 -39.5h-201v508zM123 265v-230h149q69 -1 104 30t35 88t-35 84t-110 28h-143zM523 508h44v-508h-44v508z" />
<glyph unicode="&#xfc;" horiz-adv-x="497" d="M79 508h44v-208h139q107 0 151 -38.5t44 -113.5q0 -69 -44 -108.5t-133 -39.5h-201v508zM123 265v-230h149q69 -1 104 30t35 88t-35 84t-110 28h-143z" />
<glyph unicode="&#x44c;" horiz-adv-x="497" d="M79 508h44v-208h139q107 0 151 -38.5t44 -113.5q0 -69 -44 -108.5t-133 -39.5h-201v508zM123 265v-230h149q69 -1 104 30t35 88t-35 84t-110 28h-143z" />
<glyph unicode="&#xfd;" horiz-adv-x="520" d="M173 251v35h248q-1 94 -44 150.5t-127 56.5q-71 0 -113 -38t-45 -92h-45q3 75 60 120t145 45q99 0 157 -62.5t58 -201.5q0 -140 -53 -212t-162 -72q-100 0 -155 52t-57 136h46q0 -68 46 -111t120 -42q82 0 126 60.5t43 175.5h-248z" />
<glyph unicode="&#x44d;" horiz-adv-x="520" d="M173 251v35h248q-1 94 -44 150.5t-127 56.5q-71 0 -113 -38t-45 -92h-45q3 75 60 120t145 45q99 0 157 -62.5t58 -201.5q0 -140 -53 -212t-162 -72q-100 0 -155 52t-57 136h46q0 -68 46 -111t120 -42q82 0 126 60.5t43 175.5h-248z" />
<glyph unicode="&#xfe;" horiz-adv-x="731" d="M123 286h88q5 107 63.5 174.5t169.5 67.5q107 0 170.5 -69.5t63.5 -204.5q0 -136 -63.5 -205t-170.5 -69q-116 0 -175 74.5t-59 196.5h-87v-251h-44v508h44v-222zM256 254q0 -112 47.5 -175.5t140.5 -63.5q92 0 140 63.5t48 175.5q0 111 -48 175t-140 64 q-93 0 -140.5 -64t-47.5 -175z" />
<glyph unicode="&#x44e;" horiz-adv-x="731" d="M123 286h88q5 107 63.5 174.5t169.5 67.5q107 0 170.5 -69.5t63.5 -204.5q0 -136 -63.5 -205t-170.5 -69q-116 0 -175 74.5t-59 196.5h-87v-251h-44v508h44v-222zM256 254q0 -112 47.5 -175.5t140.5 -63.5q92 0 140 63.5t48 175.5q0 111 -48 175t-140 64 q-93 0 -140.5 -64t-47.5 -175z" />
<glyph unicode="&#xff;" horiz-adv-x="507" d="M217 215l-127 -215h-50l133 216q-58 7 -90.5 44t-32.5 97q0 71 41 111t114 40h223v-508h-44v215h-167zM384 473h-156q-68 0 -100 -27.5t-32 -87.5q0 -57 35 -82.5t104 -25.5h149v223z" />
<glyph unicode="&#x44f;" horiz-adv-x="507" d="M217 215l-127 -215h-50l133 216q-58 7 -90.5 44t-32.5 97q0 71 41 111t114 40h223v-508h-44v215h-167zM384 473h-156q-68 0 -100 -27.5t-32 -87.5q0 -57 35 -82.5t104 -25.5h149v223z" />
<glyph unicode="&#x152;" horiz-adv-x="1068" d="M140 350v-350h-48v700h48v-308h408v308h48v-304h199q118 0 175.5 -53t57.5 -145q0 -100 -58 -149t-163 -49h-259v350h-408zM596 354v-312h211q81 0 125.5 38t45.5 116q-1 78 -49.5 117.5t-132.5 40.5h-200z" />
<glyph unicode="&#x40a;" horiz-adv-x="1068" d="M140 350v-350h-48v700h48v-308h408v308h48v-304h199q118 0 175.5 -53t57.5 -145q0 -100 -58 -149t-163 -49h-259v350h-408zM596 354v-312h211q81 0 125.5 38t45.5 116q-1 78 -49.5 117.5t-132.5 40.5h-200z" />
<glyph unicode="&#x153;" horiz-adv-x="835" d="M123 265v-265h-44v508h44v-208h294v208h44v-208h139q107 0 151 -38.5t44 -113.5q0 -69 -44 -108.5t-133 -39.5h-201v265h-294zM461 265v-230h149q69 -1 103.5 30t35.5 88q0 57 -35 84t-110 28h-143z" />
<glyph unicode="&#x45a;" horiz-adv-x="835" d="M123 265v-265h-44v508h44v-208h294v208h44v-208h139q107 0 151 -38.5t44 -113.5q0 -69 -44 -108.5t-133 -39.5h-201v265h-294zM461 265v-230h149q69 -1 103.5 30t35.5 88q0 57 -35 84t-110 28h-143z" />
<glyph unicode="&#x160;" horiz-adv-x="1032" d="M0 0v42q3 -1 8 -1h16q73 0 112 83.5t39 366.5v209h385v-304h199q118 0 175.5 -53t57.5 -145q-1 -100 -58.5 -149t-162.5 -49h-259v658h-289v-161q0 -280 -41.5 -389t-148.5 -109q-18 0 -23.5 0.5t-9.5 0.5zM560 354v-312h211q81 0 126 38t45 116q-1 78 -49.5 117.5 t-132.5 40.5h-200z" />
<glyph unicode="&#x409;" horiz-adv-x="1032" d="M0 0v42q3 -1 8 -1h16q73 0 112 83.5t39 366.5v209h385v-304h199q118 0 175.5 -53t57.5 -145q-1 -100 -58.5 -149t-162.5 -49h-259v658h-289v-161q0 -280 -41.5 -389t-148.5 -109q-18 0 -23.5 0.5t-9.5 0.5zM560 354v-312h211q81 0 126 38t45 116q-1 78 -49.5 117.5 t-132.5 40.5h-200z" />
<glyph unicode="&#x161;" horiz-adv-x="810" d="M6 0v35q3 -1 7.5 -1h12.5q59 0 84 58t25 256v160h301v-208h139q107 0 151 -38.5t44 -113.5q0 -69 -44 -108.5t-133 -39.5h-201v473h-215v-124q0 -202 -32.5 -276t-116.5 -74q-7 0 -12.5 0.5t-9.5 0.5zM436 265v-230h149q69 0 104 30.5t35 87.5q0 58 -34.5 85t-110.5 27 h-143z" />
<glyph unicode="&#x459;" horiz-adv-x="810" d="M6 0v35q3 -1 7.5 -1h12.5q59 0 84 58t25 256v160h301v-208h139q107 0 151 -38.5t44 -113.5q0 -69 -44 -108.5t-133 -39.5h-201v473h-215v-124q0 -202 -32.5 -276t-116.5 -74q-7 0 -12.5 0.5t-9.5 0.5zM436 265v-230h149q69 0 104 30.5t35 87.5q0 58 -34.5 85t-110.5 27 h-143z" />
<glyph unicode="&#x178;" horiz-adv-x="542" d="M419 35v473h44v-508h-170v-185h-44v185h-170v508h44v-473h296z" />
<glyph unicode="&#x45f;" horiz-adv-x="542" d="M419 35v473h44v-508h-170v-185h-44v185h-170v508h44v-473h296z" />
<glyph unicode="&#x192;" horiz-adv-x="403" d="M123 473v-473h-44v508h318v-35h-274zM272 700h60l-95 -132h-35z" />
<glyph unicode="&#x453;" horiz-adv-x="403" d="M123 473v-473h-44v508h318v-35h-274zM272 700h60l-95 -132h-35z" />
<glyph unicode="&#x2013;" horiz-adv-x="600" d="M50 280h500v-30h-500v30z" />
<glyph unicode="&#x2014;" horiz-adv-x="984" d="M50 250v30h884v-30h-884z" />
<glyph unicode="&#x2018;" horiz-adv-x="275" d="M165 508h-55v113q-1 44 13 66t42 30v-36q-15 -6 -21 -20.5t-6 -39.5v-39h27v-74z" />
<glyph unicode="&#x2019;" horiz-adv-x="275" d="M110 700h55v-113q-1 -45 -14.5 -67t-40.5 -29v36q14 5 20.5 19.5t6.5 40.5v39h-27v74z" />
<glyph unicode="&#x201a;" horiz-adv-x="275" d="M110 74h55v-113q-1 -44 -14.5 -66t-40.5 -30v36q14 6 20.5 20.5t6.5 39.5v39h-27v74z" />
<glyph unicode="&#x201c;" horiz-adv-x="320" d="M250 508h-55v113q-1 44 13 66t42 30v-36q-15 -6 -21 -20.5t-6 -39.5v-39h27v-74zM125 508h-55v113q-1 44 13 66t42 30v-36q-15 -6 -21 -20.5t-6 -39.5v-39h27v-74z" />
<glyph unicode="&#x201d;" horiz-adv-x="320" d="M70 700h55v-113q0 -45 -14 -67t-41 -29v36q14 5 20.5 19.5t6.5 40.5v39h-27v74zM195 700h55v-113q-1 -45 -14.5 -67t-40.5 -29v36q14 5 20.5 19.5t6.5 40.5v39h-27v74z" />
<glyph unicode="&#x201e;" horiz-adv-x="320" d="M70 74h55v-113q0 -44 -14 -66t-41 -30v36q14 6 20.5 20.5t6.5 39.5v39h-27v74zM195 74h55v-113q-1 -44 -14.5 -66t-40.5 -30v36q14 6 20 20.5t7 39.5v39h-27v74z" />
<glyph unicode="&#x2020;" horiz-adv-x="480" d="M218 700h44v-192h185v-35h-185v-658h-44v658h-185v35h185v192z" />
<glyph unicode="&#x2021;" horiz-adv-x="480" d="M218 700h44v-192h185v-35h-185v-225h185v-35h-185v-398h-44v398h-185v35h185v225h-185v35h185v192z" />
<glyph unicode="&#x2022;" horiz-adv-x="500" d="M170 350q0 32 23.5 56t56.5 24q32 0 56 -24t24 -56q0 -33 -24 -56.5t-56 -23.5q-33 0 -56.5 23.5t-23.5 56.5z" />
<glyph unicode="&#x2026;" horiz-adv-x="825" d="M110 0v74h55v-74h-55zM385 0v74h55v-74h-55zM660 0v74h55v-74h-55z" />
<glyph unicode="&#x2030;" horiz-adv-x="1250" d="M165 0l499 700h41l-499 -700h-41zM53 508q0 96 47 148t113 52q65 0 112.5 -52t47.5 -148q0 -97 -47.5 -148.5t-112.5 -51.5q-66 0 -113 51.5t-47 148.5zM99 508q0 -76 31 -120.5t83 -44.5q51 0 82.5 44.5t31.5 120.5q-1 75 -32 120t-82 45q-52 0 -83 -45t-31 -120z M497 192q0 96 47 148t113 52q65 -1 112.5 -52.5t47.5 -147.5q0 -97 -47.5 -148.5t-112.5 -51.5q-66 0 -113 51.5t-47 148.5zM543 192q0 -76 31 -120.5t83 -44.5q51 0 82 44.5t32 120.5q0 75 -31.5 120t-82.5 45q-52 0 -83 -45t-31 -120zM877 192q0 96 47 148t113 52 q65 -1 112.5 -52.5t47.5 -147.5q0 -97 -47.5 -148.5t-112.5 -51.5q-66 0 -113 51.5t-47 148.5zM923 192q0 -76 31 -120.5t83 -44.5q51 0 82.5 44.5t31.5 120.5q0 75 -31.5 120t-82.5 45q-52 0 -83 -45t-31 -120z" />
<glyph unicode="&#x2039;" horiz-adv-x="286" d="M90 275l121 -102v-50l-149 130v44l149 130v-50z" />
<glyph unicode="&#x203a;" horiz-adv-x="286" d="M196 275l-121 102v50l149 -130v-44l-149 -130v50z" />
<glyph unicode="&#x2122;" horiz-adv-x="745" d="M133 665h-113v35h270v-35h-113v-315h-44v315zM515 350l-104 278h-2l3 -45v-233h-44v350h56l97 -255l9 -35h2l9 35l95 255h56v-350h-44v233l3 45h-2l-104 -278h-30z" />
<glyph unicode="&#x2219;" horiz-adv-x="250" d="M98 230v74h55v-74h-55z" />
<glyph unicode="&#xe000;" horiz-adv-x="510" d="M0 510h510v-510h-510v510z" />
<glyph d="M493 60l20 -28q-22 -25 -51 -39t-58 -14h-29l-84 28q-38 12 -56 16t-32 5q-31 0 -62 -10.5t-53 -27.5l-27 35q58 38 84 82t27 95q0 29 -7.5 59.5t-20.5 54.5h-91v35h77q-25 48 -35 85t-10 76q0 95 60.5 152t158.5 57q97 0 153 -56.5t55 -158.5h-50v19q-1 64 -44.5 109 t-118.5 45q-79 0 -122 -49.5t-42 -120.5q0 -34 10 -69t36 -89h183v-35h-169q10 -24 16.5 -50t6.5 -50q0 -43 -18 -86t-51 -71l2 -4q15 6 32.5 9t40.5 3q22 0 40.5 -4t52.5 -16q39 -16 57 -19.5t34 -3.5q20 0 40.5 8t44.5 28z" />
<glyph horiz-adv-x="600" d="M50 430v30h297l76 130l30 -16l-66 -114h163v-30h-181l-99 -170h280v-30h-297l-76 -130l-30 16l66 114h-163v30h181l99 170h-280z" />
<glyph horiz-adv-x="272" d="M164 900h66l-96 -140h-40z" />
<glyph horiz-adv-x="266" d="M164 700h60l-95 -132h-35z" />
<glyph horiz-adv-x="980" d="M470 306q-53 -67 -111.5 -100.5t-119.5 -33.5q-75 0 -122 50t-47 128q0 81 55.5 130t151.5 49q73 0 126.5 -33.5t100.5 -100.5q51 68 104.5 100.5t127.5 32.5q77 0 125.5 -46.5t48.5 -121.5q0 -81 -51.5 -134.5t-140.5 -53.5q-75 0 -137 33t-111 101zM452 331 q-73 99 -118.5 131t-96.5 32q-57 0 -97.5 -40t-39.5 -104q0 -63 40.5 -106t103.5 -42q52 0 99 28t109 101zM524 371q63 -84 113.5 -119t106.5 -35q60 0 98 39t38 104q0 61 -38.5 99.5t-106.5 38.5q-66 -1 -112 -29.5t-99 -97.5z" />
<glyph horiz-adv-x="656" d="M100 411l472 -279l-17 -30l-495 294v30l495 294l16 -30zM60 236l17 30l495 -294l-17 -30z" />
<glyph horiz-adv-x="656" d="M556 411l-471 279l16 30l495 -294v-30l-495 -294l-17 30zM596 236l-495 -294l-17 30l495 294z" />
<glyph horiz-adv-x="620" d="M202 500l130 -447l121 776h147v-30h-113l-143 -899h-34l-175 570h-115v30h182z" />
<glyph horiz-adv-x="387" d="M346 508l-7 -35h-109l-109 -517q-18 -81 -47.5 -113t-80.5 -32q-5 1 -14 2t-19 2l7 35q7 -1 14.5 -2t15.5 -2q28 0 46 18t29 68l114 541h-93l7 35h93l15 69q13 61 47 92t93 31q10 0 19 -2t20 -5l-6 -35q-10 3 -20.5 4.5t-20.5 2.5q-34 -1 -56.5 -21t-31.5 -64l-15 -72 h109z" />
<glyph horiz-adv-x="580" d="M79 396l-29 12q17 47 49 77.5t74 30.5q20 0 41 -6t42 -17l103 -55q10 -6 25 -9.5t29 -3.5q29 0 51 21t37 56l29 -12q-23 -52 -53.5 -80t-69.5 -28q-22 0 -40.5 5t-42.5 18l-103 55q-11 5 -26.5 9t-28.5 4q-29 -1 -53 -23t-34 -54zM79 208l-29 12q17 47 49 77.5t74 30.5 q20 0 41 -6t42 -17l103 -55q10 -6 25 -10t29 -3q29 0 51 21t37 56l29 -12q-23 -52 -53.5 -80t-69.5 -28q-22 0 -40.5 5t-42.5 18l-103 55q-11 5 -26.5 9t-28.5 4q-29 0 -53 -22.5t-34 -54.5z" />
<glyph horiz-adv-x="600" d="M283 615l-211 -573h420zM3 0l267 700h60l267 -700h-594z" />
<glyph horiz-adv-x="600" d="M255 500q0 19 12.5 32t32.5 13q19 0 31.5 -13t13.5 -32q0 -20 -13 -32.5t-32 -12.5q-20 0 -32.5 12.5t-12.5 32.5zM255 152q0 19 12.5 32t32.5 13q19 0 32 -13t13 -32q0 -20 -13 -33t-32 -12q-20 -1 -32.5 12t-12.5 33zM50 311v30h500v-30h-500z" />
<glyph horiz-adv-x="392" d="M50 852h44q2 -39 30 -63.5t72 -23.5q43 -1 71 23.5t31 63.5h44q-5 -52 -44 -87t-102 -35q-64 0 -103 35t-43 87z" />
<glyph horiz-adv-x="376" d="M50 700h37q2 -41 30 -64.5t71 -22.5q42 0 70 23t31 64h37q-6 -54 -43.5 -85.5t-94.5 -31.5q-58 0 -95.5 31.5t-42.5 85.5z" />
</font>
</defs>
</svg>
